<?xml version="1.0" encoding="UTF-8"?>
<svg version="1.1" xmlns="http://www.w3.org/2000/svg" width="1024" height="1024">
<path d="M0 0 C1.90931808 -0.00956978 1.90931808 -0.00956978 3.85720825 -0.01933289 C5.26271527 -0.02086356 6.6682228 -0.02197645 8.07373047 -0.02270508 C9.51610344 -0.02592004 10.95847609 -0.0292843 12.40084839 -0.03279114 C15.43911491 -0.03879719 18.47735296 -0.04063007 21.515625 -0.04003906 C25.36708289 -0.03993859 29.21835159 -0.05346297 33.06976509 -0.07081127 C36.05907994 -0.08207149 39.04835153 -0.08395386 42.03768539 -0.08342934 C43.45433058 -0.0845934 44.87097749 -0.08892427 46.28760147 -0.0967617 C63.8374767 -0.18458666 80.75703651 0.96474983 95.06591797 12.14526367 C95.68208984 12.62350586 96.29826172 13.10174805 96.93310547 13.59448242 C104.10902276 19.92523612 109.54349211 30.55683884 110.20068359 40.1027832 C110.99245101 57.15939552 108.17540518 70.42969683 96.44091797 83.33276367 C82.62540932 96.51790691 64.66555937 96.5778071 46.81591797 96.33276367 C44.89535558 96.31768581 42.9747817 96.30400291 41.05419922 96.29174805 C36.39115072 96.25899687 31.72866386 96.20738689 27.06591797 96.14526367 C27.06813858 96.73186264 27.07035919 97.31846161 27.07264709 97.9228363 C27.09470007 104.00551751 27.10982461 110.08818744 27.12084961 116.17089844 C27.12589122 118.44368958 27.13272434 120.71647747 27.14135742 122.98925781 C27.15343058 126.24829919 27.15914784 129.50729784 27.16357422 132.76635742 C27.1687355 133.78926376 27.17389679 134.8121701 27.17921448 135.86607361 C27.17929001 136.80697342 27.17936554 137.74787323 27.17944336 138.71728516 C27.18166397 139.5500145 27.18388458 140.38274384 27.18617249 141.2407074 C27.06591797 143.14526367 27.06591797 143.14526367 26.06591797 144.14526367 C23.96757773 144.24537352 21.86586272 144.27607534 19.76513672 144.27807617 C18.47800781 144.27936523 17.19087891 144.2806543 15.86474609 144.28198242 C15.19000244 144.2798877 14.51525879 144.27779297 13.82006836 144.27563477 C11.77238457 144.27031296 9.72492278 144.27556569 7.67724609 144.28198242 C6.38625 144.28069336 5.09525391 144.2794043 3.76513672 144.27807617 C2.57750732 144.27694824 1.38987793 144.27582031 0.16625977 144.2746582 C-2.42957098 144.16631973 -4.45701913 143.8198732 -6.93408203 143.14526367 C-6.95741001 124.64803635 -6.97506071 106.150812 -6.9858942 87.65357304 C-6.99105738 79.06559318 -6.99810047 70.47762244 -7.00952148 61.88964844 C-7.01946768 54.4071095 -7.0259353 46.92457717 -7.02817053 39.4420318 C-7.02947774 35.47761781 -7.03256429 31.51322272 -7.03981209 27.54881477 C-7.04657129 23.82166154 -7.0486992 20.0945351 -7.04718971 16.36737633 C-7.04746609 14.99550862 -7.04947181 13.62364007 -7.05328751 12.25177765 C-7.05822311 10.38665404 -7.05647997 8.52151624 -7.05433655 6.65638733 C-7.05525834 5.61015229 -7.05618013 4.56391726 -7.05712986 3.48597813 C-6.81570144 -1.10666686 -3.9727246 0.01346041 0 0 Z M27.06591797 29.14526367 C27.06591797 42.34526367 27.06591797 55.54526367 27.06591797 69.14526367 C49.47333685 71.09074035 49.47333685 71.09074035 71.06591797 64.14526367 C74.41111925 60.58887544 76.6939767 57.10448062 77.06591797 52.14526367 C77.14841797 51.05213867 77.23091797 49.95901367 77.31591797 48.83276367 C76.92869497 43.12122442 75.38715101 38.9469451 72.00341797 34.33276367 C63.34473888 27.88481116 52.7278691 28.77989585 42.44091797 28.95776367 C37.36716797 29.01963867 32.29341797 29.08151367 27.06591797 29.14526367 Z " fill="#040404" transform="translate(281.93408203125,449.854736328125)"/>
<path d="M0 0 C8.69976437 8.3725005 12.66568371 17.40119684 13.00413799 29.58632183 C13.04645461 33.3226816 13.01880495 37.05669747 12.98046875 40.79296875 C12.97486124 42.41392114 12.97059661 44.03487868 12.96760559 45.65583801 C12.95624757 49.88581822 12.92686036 54.11548071 12.89349365 58.34533691 C12.86259573 62.67614446 12.84905846 67.00700422 12.83398438 71.33789062 C12.80198018 79.80875454 12.74928829 88.27930093 12.6875 96.75 C2.4575 96.75 -7.7725 96.75 -18.3125 96.75 C-19.3025 93.285 -19.3025 93.285 -20.3125 89.75 C-21.03953125 90.34748047 -21.03953125 90.34748047 -21.78125 90.95703125 C-32.32284089 99.28894251 -43.04831733 100.54039008 -56.3125 99.75 C-68.14572053 97.84044599 -76.22928589 92.34083473 -83.3125 82.75 C-87.63174476 75.97499735 -87.05311063 67.46537224 -86.3125 59.75 C-83.92268463 50.28878222 -78.8672793 44.3538117 -70.55859375 39.39453125 C-54.94735796 31.48558989 -36.38481059 32.93016631 -19.3125 32.75 C-19.71092559 31.14120578 -20.13203157 29.53801827 -20.5625 27.9375 C-20.79453125 27.04417969 -21.0265625 26.15085937 -21.265625 25.23046875 C-22.4909577 22.32716179 -23.63077615 21.34423816 -26.3125 19.75 C-40.06933297 15.73269123 -52.55706508 18.94839903 -65.23046875 24.5078125 C-68.3125 25.75 -68.3125 25.75 -71.3125 25.75 C-72.66122396 22.86109425 -73.98865602 19.96288116 -75.3125 17.0625 C-75.6940625 16.24587891 -76.075625 15.42925781 -76.46875 14.58789062 C-76.8296875 13.79189453 -77.190625 12.99589844 -77.5625 12.17578125 C-77.89765625 11.44786377 -78.2328125 10.71994629 -78.578125 9.9699707 C-79.41024106 7.45453474 -79.44200201 5.38253301 -79.3125 2.75 C-56.15825099 -9.78554611 -22.39531724 -19.21961494 0 0 Z M-53.8125 57.9375 C-55.80180036 61.66743817 -56.14238294 64.60896796 -55.3125 68.75 C-53.5700181 71.71867287 -52.09973348 73.26376756 -49.1875 75.0625 C-41.57881238 76.88196878 -34.39134269 76.01607989 -27.3125 72.75 C-23.06839614 70.07436931 -20.98098786 67.49201814 -19.3125 62.75 C-19.23255098 61.01468538 -19.21136283 59.27600927 -19.23828125 57.5390625 C-19.24899658 56.6413916 -19.25971191 55.7437207 -19.27075195 54.81884766 C-19.29141724 53.79476807 -19.29141724 53.79476807 -19.3125 52.75 C-23.14568619 52.66210356 -26.97860928 52.60930913 -30.8125 52.5625 C-31.89015625 52.53736328 -32.9678125 52.51222656 -34.078125 52.48632812 C-41.62371643 52.41731357 -47.89458877 52.75932767 -53.8125 57.9375 Z " fill="#040404" transform="translate(535.3125,496.25)"/>
<path d="M0 0 C0.99 0 1.98 0 3 0 C5.81390806 12.66258627 4.44723646 27.83242892 -2.4921875 38.96875 C-8.687035 47.31414042 -14.68185575 51.32718752 -25 53 C-27.45694158 53.09261199 -29.91631864 53.12998718 -32.375 53.125 C-33.64085937 53.12757813 -34.90671875 53.13015625 -36.2109375 53.1328125 C-39.90964792 53.00316698 -43.35437943 52.59347312 -47 52 C-47.21398437 52.68449219 -47.42796875 53.36898437 -47.6484375 54.07421875 C-49.41140763 57.89059051 -51.85873269 60.67745369 -54.625 63.8125 C-55.16697021 64.43342529 -55.70894043 65.05435059 -56.26733398 65.6940918 C-69.49903238 80.74271534 -85.4222746 92.58536781 -101.625 104.25 C-102.37861816 104.79277588 -103.13223633 105.33555176 -103.90869141 105.89477539 C-110.6925125 110.77898391 -110.6925125 110.77898391 -113.48291016 112.78466797 C-123.15807699 119.75584157 -132.34617021 126.77960901 -141 135 C-142.28589073 136.11088785 -143.57727793 137.2154566 -144.875 138.3125 C-161.06025182 152.51992064 -174.34393247 168.68786494 -184 188 C-184.99 188 -185.98 188 -187 188 C-186.42901518 182.90051488 -185.28294888 178.3618713 -183.4375 173.5625 C-183.17573975 172.87583252 -182.91397949 172.18916504 -182.64428711 171.48168945 C-173.56790962 148.28532953 -159.23635568 127.08105344 -142.01171875 109.15234375 C-139.96511188 107.16691356 -139.96511188 107.16691356 -139 105 C-138.34 105 -137.68 105 -137 105 C-136.79375 104.46375 -136.5875 103.9275 -136.375 103.375 C-134.46749574 100.08021991 -131.95180616 97.40636372 -129 95 C-128.34 95 -127.68 95 -127 95 C-127 94.34 -127 93.68 -127 93 C-125.44759659 91.60674046 -123.82970015 90.28619872 -122.1875 89 C-117.13360468 84.95948215 -112.326802 80.73435569 -107.5703125 76.34375 C-105.32002985 74.29182053 -103.02272435 72.32841961 -100.6875 70.375 C-94.05088104 64.56795841 -88.81525283 57.64657518 -87.71875 48.70703125 C-87.51875436 43.73213971 -88.03024476 40.13965882 -91 36 C-97.30448698 29.69551302 -104.62546874 26.69181362 -113 24 C-114.155 23.62875 -115.31 23.2575 -116.5 22.875 C-136.12057837 17.12414082 -155.81995704 17.75678503 -176 19 C-176 18.01 -176 17.02 -176 16 C-151.49373051 8.87944677 -126.08666104 5.51283259 -101 12 C-100.12150391 12.20979492 -99.24300781 12.41958984 -98.33789062 12.63574219 C-81.88705142 16.58592695 -66.96184938 22.57494529 -51.6940918 29.74487305 C-41.32242925 34.57683654 -32.64234702 37.2430979 -21 36 C-12.96200044 32.70732548 -8.83684351 26.70129956 -5.16796875 19.04296875 C-2.80352259 12.88275619 -1.42811663 6.430514 0 0 Z " fill="#E72923" transform="translate(738,420)"/>
<path d="M0 0 C4.39656173 -0.02465504 8.7930872 -0.04283842 13.18969727 -0.05493164 C14.68644918 -0.05997121 16.18319616 -0.06680287 17.67993164 -0.07543945 C19.82699807 -0.08752159 21.97399962 -0.09323191 24.12109375 -0.09765625 C26.06133423 -0.10551147 26.06133423 -0.10551147 28.04077148 -0.11352539 C31 0 31 0 32 1 C32.09864348 2.83263348 32.12632145 4.6691083 32.12698364 6.50439453 C32.12980347 7.69913391 32.13262329 8.89387329 32.13552856 10.12481689 C32.13358397 11.46081558 32.13153579 12.79681412 32.12939453 14.1328125 C32.13074855 15.53033494 32.13252848 16.92785702 32.13470459 18.32537842 C32.13927892 22.13105894 32.13748937 25.93671247 32.1343255 29.74239349 C32.1318019 33.71644669 32.13413944 37.6904975 32.13571167 41.66455078 C32.13753336 48.33952247 32.13512706 55.01448311 32.13037109 61.68945312 C32.12492847 69.41760964 32.12669113 77.14573977 32.1321975 84.87389565 C32.13672863 91.49723347 32.13737918 98.12056333 32.13475883 104.74390221 C32.13319606 108.70494393 32.1330023 112.66597323 32.13629532 116.62701416 C32.13917404 120.35008231 32.13719833 124.07311629 32.13140106 127.79618073 C32.13007347 129.16643466 32.13046757 130.53669145 32.13266373 131.90694427 C32.13537522 133.76983033 32.13138042 135.63272263 32.12698364 137.49560547 C32.12660662 138.54054169 32.12622959 139.58547791 32.12584114 140.66207886 C32 143 32 143 31 144 C26.74251574 144.21809756 22.47954276 144.18579161 18.21704102 144.18530273 C16.07483 144.18748743 13.93313529 144.20563512 11.79101562 144.22460938 C10.4348976 144.22754359 9.07877712 144.2295282 7.72265625 144.23046875 C6.48265869 144.23457764 5.24266113 144.23868652 3.96508789 144.24291992 C1 144 1 144 -1 142 C-1.24888897 139.57305908 -1.24888897 139.57305908 -1.24723816 136.45800781 C-1.25143265 135.28016724 -1.25562714 134.10232666 -1.25994873 132.88879395 C-1.25432922 131.59002319 -1.24870972 130.29125244 -1.24291992 128.953125 C-1.24399241 127.57678131 -1.2459306 126.20043806 -1.24867249 124.82409668 C-1.25352926 121.08035418 -1.24585481 117.33673046 -1.23571944 113.59300232 C-1.2269522 109.68081797 -1.22869613 105.76863748 -1.2290802 101.85644531 C-1.22814294 95.28578701 -1.21945068 88.71517482 -1.20581055 82.14453125 C-1.19008437 74.54077112 -1.18481241 66.93706151 -1.1855461 59.33328629 C-1.18615587 52.02796983 -1.18105508 44.72266989 -1.17275429 37.4173584 C-1.16921782 34.30415722 -1.16739052 31.19096188 -1.16686058 28.07775879 C-1.16585806 24.41376386 -1.15976889 20.74981156 -1.14969444 17.08583069 C-1.14536672 15.09429359 -1.14594205 13.10274774 -1.14663696 11.11120605 C-1.14237198 9.93336548 -1.13810699 8.7555249 -1.13371277 7.54199219 C-1.13203692 6.51402527 -1.13036108 5.48605835 -1.12863445 4.42694092 C-1 2 -1 2 0 0 Z " fill="#090909" transform="translate(404,450)"/>
<path d="M0 0 C60.52555672 -4.38928669 60.52555672 -4.38928669 72.52685547 3.93994141 C81.6841926 11.96426385 86.50174071 23.1809334 89.875 34.64257812 C90.205 35.63257813 90.535 36.62257813 90.875 37.64257812 C95.19948087 33.57483824 98.67490263 29.10601549 102.1875 24.33007812 C102.73728516 23.58951172 103.28707031 22.84894531 103.85351562 22.0859375 C105.19772179 20.27418137 106.53808744 18.45971912 107.875 16.64257812 C108.535 16.97257812 109.195 17.30257813 109.875 17.64257812 C110.62824968 25.76093579 109.85993403 30.99905629 105.3828125 37.87695312 C104.88523437 38.45960938 104.38765625 39.04226563 103.875 39.64257812 C103.215 39.64257812 102.555 39.64257812 101.875 39.64257812 C101.65714844 40.19558594 101.43929687 40.74859375 101.21484375 41.31835938 C99.44921352 44.38118733 97.0497751 46.50650439 94.4375 48.83007812 C93.90761475 49.30912598 93.37772949 49.78817383 92.83178711 50.28173828 C88.46150904 54.19973962 83.94582222 57.92424858 79.34765625 61.57226562 C76.74990158 63.64416282 76.74990158 63.64416282 74.37109375 66.46289062 C71.875 68.64257812 71.875 68.64257812 69.2578125 68.73632812 C66.25721207 67.35900334 65.39283451 65.97938525 63.75 63.14257812 C61.69593378 59.37640355 61.69593378 59.37640355 57.875 57.64257812 C55.22143433 57.42070321 52.58380792 57.24415506 49.92578125 57.10742188 C49.15316452 57.06444473 48.38054779 57.02146759 47.58451843 56.97718811 C45.11904028 56.84093812 42.65329591 56.71043809 40.1875 56.58007812 C38.51495321 56.48866002 36.84242684 56.39686766 35.16992188 56.3046875 C31.07183871 56.07964233 26.97350747 55.85975318 22.875 55.64257812 C23.205 54.32257813 23.535 53.00257813 23.875 51.64257812 C34.23194312 50.88043776 44.4885207 50.5082702 54.875 50.64257812 C54.09872149 48.00569765 54.09872149 48.00569765 51.875 45.64257812 C48.53795876 44.79267956 45.19590629 44.82842152 41.765625 44.78710938 C40.76545349 44.75453537 39.76528198 44.72196136 38.73480225 44.68840027 C35.53171135 44.58764657 32.32900622 44.51972542 29.125 44.45507812 C25.93571833 44.37440693 22.74686824 44.28672621 19.55804443 44.18962097 C17.57383702 44.13091714 15.58929047 44.08250341 13.60455322 44.04585266 C8.33613232 43.90845333 3.86791057 43.35346265 -1.125 41.64257812 C-0.63 40.65257812 -0.63 40.65257812 -0.125 39.64257812 C2.44189453 39.24829102 2.44189453 39.24829102 5.8828125 39.05273438 C7.15286133 38.97941895 8.42291016 38.90610352 9.73144531 38.83056641 C16.73519908 38.49843263 23.74129677 38.27533993 30.75 38.08007812 C32.22787246 38.0367259 33.70573713 37.9931074 35.18359375 37.94921875 C38.74731179 37.84395039 42.31112005 37.74223346 45.875 37.64257812 C45.545 35.99257813 45.215 34.34257812 44.875 32.64257812 C44.08150146 32.65417969 43.28800293 32.66578125 42.47045898 32.67773438 C29.94237482 32.77458986 17.45101173 32.19465844 4.9375 31.64257812 C2.69337197 31.54593095 0.4492314 31.4495746 -1.79492188 31.35351562 C-7.2384303 31.11988623 -12.68177336 30.88267861 -18.125 30.64257812 C-18.125 29.32257813 -18.125 28.00257813 -18.125 26.64257812 C-17.13918945 26.61752197 -16.15337891 26.59246582 -15.13769531 26.56665039 C11.38001827 25.8994235 11.38001827 25.8994235 37.875 24.64257812 C37.38 22.66257812 37.38 22.66257812 36.875 20.64257812 C36.17126251 20.64724594 35.46752502 20.65191376 34.74246216 20.65672302 C26.77606461 20.68601573 18.82876737 20.50474577 10.8671875 20.24023438 C9.57934357 20.19821396 8.29149963 20.15619354 6.96463013 20.11289978 C4.26705955 20.02439744 1.56955114 19.93421224 -1.12792969 19.84301758 C-4.58666363 19.72640103 -8.04556735 19.61599727 -11.50454903 19.50701237 C-14.81827673 19.40137292 -18.13177365 19.28913939 -21.4453125 19.17773438 C-22.68789825 19.1391481 -23.93048401 19.10056183 -25.21072388 19.06080627 C-26.35306488 19.0208403 -27.49540588 18.98087433 -28.67236328 18.93969727 C-30.18360275 18.88973351 -30.18360275 18.88973351 -31.72537231 18.83876038 C-34.125 18.64257812 -34.125 18.64257812 -36.125 17.64257812 C-35.795 16.65257812 -35.465 15.66257812 -35.125 14.64257812 C-34.29291016 14.62275879 -33.46082031 14.60293945 -32.60351562 14.58251953 C-11.73801068 14.06630078 9.05297649 13.08940023 29.875 11.64257812 C28.30555917 9.78874715 27.37002049 8.75239493 24.96176147 8.21813965 C24.24009796 8.19513794 23.51843445 8.17213623 22.77490234 8.1484375 C21.54134506 8.09907043 21.54134506 8.09907043 20.28286743 8.04870605 C18.94788712 8.01782898 18.94788712 8.01782898 17.5859375 7.98632812 C16.65510345 7.95381958 15.72426941 7.92131104 14.76522827 7.88781738 C11.80204397 7.78953516 8.83895531 7.71354487 5.875 7.64257812 C4.94143677 7.61776367 4.00787354 7.59294922 3.04602051 7.56738281 C-4.41800638 7.3704168 -11.88281509 7.22727533 -19.34814453 7.09033203 C-30.63635992 6.87902936 -41.8680739 6.54086469 -53.125 5.64257812 C-52.795 4.65257812 -52.465 3.66257812 -52.125 2.64257812 C-41.53742078 1.93347057 -30.95416201 1.45865656 -20.34857178 1.112854 C-13.55115432 0.8712517 -6.78270755 0.49795517 0 0 Z " fill="#E8312A" transform="translate(537.125,442.357421875)"/>
<path d="M0 0 C3.62310272 1.75422379 6.12506978 4.25818463 8.90625 7.1328125 C9.76512817 8.01090576 9.76512817 8.01090576 10.64135742 8.90673828 C16.03111517 14.55578915 20.86231569 20.08503553 22.03125 28.0078125 C21.18318708 32.81350238 19.72770306 35.15667623 15.96875 38.2578125 C5.39636578 44.64743306 -9.13217869 47.91104057 -21.41015625 48.50390625 C-29.78822058 48.67484745 -29.78822058 48.67484745 -37.0859375 52.26953125 C-39.17206952 55.13901003 -40.83175545 58.08204629 -42.53125 61.1953125 C-44.17718426 63.63707565 -45.91754342 66.00658017 -47.65625 68.3828125 C-48.45146117 69.50063373 -49.24574584 70.61911469 -50.0390625 71.73828125 C-50.45365723 72.28726074 -50.86825195 72.83624023 -51.29541016 73.40185547 C-52.6054347 75.19862715 -52.6054347 75.19862715 -53.56005859 77.38330078 C-54.98912378 80.03325794 -56.04822912 81.45773592 -58.53125 83.1953125 C-64.34947804 84.20146349 -70.0282079 83.949265 -75.90625 83.6953125 C-77.51683905 83.65515303 -79.12752387 83.61865652 -80.73828125 83.5859375 C-84.67164491 83.49808037 -88.60039407 83.36023465 -92.53125 83.1953125 C-92.86125 82.5353125 -93.19125 81.8753125 -93.53125 81.1953125 C-83.70576467 66.89345992 -71.72743305 54.43650547 -58.53125 43.1953125 C-57.53867187 42.33679688 -56.54609375 41.47828125 -55.5234375 40.59375 C-49.52170811 35.42886501 -43.4446691 30.51987507 -36.96875 25.94921875 C-34.44821425 24.18504321 -34.44821425 24.18504321 -31.9140625 21.97265625 C-29.53125 20.1953125 -29.53125 20.1953125 -26.40625 20.1953125 C-22.17697896 21.07641063 -18.17641257 22.74647198 -14.1796875 24.35546875 C-11.1999676 25.44720835 -11.1999676 25.44720835 -6.53125 25.1953125 C-14.94625 22.2253125 -14.94625 22.2253125 -23.53125 19.1953125 C-22.2616154 14.11677412 -20.86611441 13.90648204 -16.53125 11.1953125 C-15.35936181 10.26915887 -14.20211123 9.32424445 -13.05859375 8.36328125 C-12.46884766 7.87537109 -11.87910156 7.38746094 -11.27148438 6.88476562 C-10.05771254 5.87350827 -8.85206731 4.85242556 -7.65429688 3.82226562 C-3.2932128 0.25410593 -3.2932128 0.25410593 0 0 Z " fill="#E52522" transform="translate(660.53125,510.8046875)"/>
<path d="M0 0 C2.2734375 0.05859375 2.2734375 0.05859375 5 1 C6.76558269 3.00360493 8.17231255 4.85092815 9.625 7.0625 C10.04668457 7.67867187 10.46836914 8.29484375 10.90283203 8.9296875 C11.80650734 10.25255946 12.70393838 11.57971443 13.59570312 12.91064453 C15.03057673 15.04549299 16.48811002 17.16308265 17.953125 19.27734375 C20.2474707 22.59076701 22.53767529 25.90665553 24.79980469 29.2421875 C25.59109999 30.40112285 26.39365864 31.55245869 27.20800781 32.6953125 C30 36.67616879 30 36.67616879 30 40 C23.4835139 41.79975588 16.51395121 41.3829169 9.79248047 41.45996094 C8.01746694 41.48660401 6.24260934 41.52756964 4.46826172 41.58300781 C1.89748188 41.66228507 -0.67036355 41.6952805 -3.2421875 41.71875 C-4.02987518 41.75174194 -4.81756287 41.78473389 -5.62911987 41.81872559 C-8.97091991 41.80665824 -11.13098875 41.70951963 -13.77552795 39.55033875 C-15.33491562 37.77163952 -16.6881913 35.96691822 -18 34 C-18.54229248 33.21343018 -19.08458496 32.42686035 -19.64331055 31.61645508 C-20.05363525 30.92447021 -20.46395996 30.23248535 -20.88671875 29.51953125 C-21.35013672 28.74802734 -21.81355469 27.97652344 -22.29101562 27.18164062 C-22.75185547 26.39982422 -23.21269531 25.61800781 -23.6875 24.8125 C-24.62707183 23.23458333 -25.56842048 21.65772304 -26.51171875 20.08203125 C-26.91865967 19.39343018 -27.32560059 18.7048291 -27.74487305 17.99536133 C-28.98060911 15.93612691 -28.98060911 15.93612691 -30.65551758 13.99487305 C-32 12 -32 12 -32 8 C-30.27716797 7.74476563 -30.27716797 7.74476563 -28.51953125 7.484375 C-13.24890759 6.04144737 -13.24890759 6.04144737 0 0 Z " fill="#DE2520" transform="translate(673,553)"/>
<path d="M0 0 C1.517146 0.39445312 1.517146 0.39445312 3.06494141 0.796875 C8.68984345 2.27374578 14.30326536 3.79299278 19.8984375 5.37890625 C20.83349121 5.6426001 21.76854492 5.90629395 22.73193359 6.17797852 C25 7 25 7 27 9 C24.36 9.33 21.72 9.66 19 10 C19.495 11.485 19.495 11.485 20 13 C18.35 13.33 16.7 13.66 15 14 C15 15.98 15 17.96 15 20 C14.34 20 13.68 20 13 20 C13 19.34 13 18.68 13 18 C12.34 18 11.68 18 11 18 C10.505 19.485 10.505 19.485 10 21 C6.76224459 20.6190876 4.98530925 19.98984888 2.26953125 18.11328125 C-3.31284949 14.50507577 -9.69219397 12.93986192 -16 11 C-16.90878906 10.69835937 -17.81757812 10.39671875 -18.75390625 10.0859375 C-36.89942694 4.46338179 -56.33023292 5.84982733 -75 7 C-75 6.01 -75 5.02 -75 4 C-50.58166405 -3.09500322 -24.98582952 -6.62793043 0 0 Z " fill="#E72C25" transform="translate(637,432)"/>
<path d="M0 0 C0.99 0.33 1.98 0.66 3 1 C3 1.99 3 2.98 3 4 C4.32 4 5.64 4 7 4 C7 6.64 7 9.28 7 12 C5.68 12 4.36 12 3 12 C3 12.66 3 13.32 3 14 C3.66 14 4.32 14 5 14 C5.05712204 18.19371 4.92944184 20.78223367 2.34570312 24.16748047 C0.04373056 26.50145402 -2.3290922 28.72714598 -4.75 30.9375 C-18.10689627 43.71143161 -28.72366607 57.44733215 -37 74 C-37.99 74 -38.98 74 -40 74 C-39.42901518 68.90051488 -38.28294888 64.3618713 -36.4375 59.5625 C-36.17573975 58.87583252 -35.91397949 58.18916504 -35.64428711 57.48168945 C-27.31958126 36.20636531 -14.38226689 17.62987554 0 0 Z " fill="#D41C1D" transform="translate(591,534)"/>
<path d="M0 0 C0.66 0.33 1.32 0.66 2 1 C2 1.66 2 2.32 2 3 C2.66 3 3.32 3 4 3 C4.33 2.34 4.66 1.68 5 1 C5.33 2.32 5.66 3.64 6 5 C5.34 5 4.68 5 4 5 C4 5.66 4 6.32 4 7 C4.66 7 5.32 7 6 7 C6 7.66 6 8.32 6 9 C6.66 9 7.32 9 8 9 C8 9.66 8 10.32 8 11 C8.66 11 9.32 11 10 11 C10 11.66 10 12.32 10 13 C10.99 13 11.98 13 13 13 C13.495 15.475 13.495 15.475 14 18 C13.53215088 18.35715088 13.06430176 18.71430176 12.58227539 19.08227539 C8.07055344 22.52725733 3.56176568 25.97604167 -0.94482422 29.42773438 C-2.56643506 30.66831098 -4.19090328 31.90515257 -5.81640625 33.140625 C-10.47814268 36.70989725 -14.85081817 40.49802677 -19.15234375 44.49609375 C-21 46 -21 46 -23 46 C-22.67 43.69 -22.34 41.38 -22 39 C-22.66 39 -23.32 39 -24 39 C-24 38.34 -24 37.68 -24 37 C-22.68 37 -21.36 37 -20 37 C-20 34.36 -20 31.72 -20 29 C-21.32 29 -22.64 29 -24 29 C-24.66 27.35 -25.32 25.7 -26 24 C-24.88200014 22.66079162 -23.75538103 21.32877444 -22.625 20 C-21.68527344 18.88625 -21.68527344 18.88625 -20.7265625 17.75 C-19.87191406 16.88375 -19.87191406 16.88375 -19 16 C-18.34 16 -17.68 16 -17 16 C-16.79375 15.46375 -16.5875 14.9275 -16.375 14.375 C-14.46749574 11.08021991 -11.95180616 8.40636372 -9 6 C-8.34 6 -7.68 6 -7 6 C-7 5.34 -7 4.68 -7 4 C-1.7265625 0.77734375 -1.7265625 0.77734375 0 0 Z " fill="#E32924" transform="translate(618,509)"/>
<path d="M0 0 C4.14117141 3.97317257 5.30080464 7.38766419 5.55078125 13.09765625 C5.21424248 19.14133162 4.01611039 22.22402417 -0.19921875 26.53515625 C-5.06851214 29.61658814 -10.65572601 29.37573816 -16.19921875 28.53515625 C-20.51431598 26.24763483 -23.39844217 23.07409995 -25.19921875 18.53515625 C-26.01323567 13.49257355 -26.33465781 8.62279349 -23.84375 4.04296875 C-17.35431778 -3.77873102 -8.79050388 -5.85513136 0 0 Z " fill="#E2251F" transform="translate(698.19921875,416.46484375)"/>
<path d="M0 0 C0.33 0.66 0.66 1.32 1 2 C0.34 2 -0.32 2 -1 2 C-0.67 3.65 -0.34 5.3 0 7 C-0.66 7 -1.32 7 -2 7 C-2 7.66 -2 8.32 -2 9 C-1.34 9 -0.68 9 0 9 C0.66 10.32 1.32 11.64 2 13 C2.66 13 3.32 13 4 13 C4 13.66 4 14.32 4 15 C5.32 14.34 6.64 13.68 8 13 C8 12.34 8 11.68 8 11 C8.66 11 9.32 11 10 11 C10 10.34 10 9.68 10 9 C10.66 9 11.32 9 12 9 C12 9.66 12 10.32 12 11 C12.66 11 13.32 11 14 11 C14 12.32 14 13.64 14 15 C14.66 15 15.32 15 16 15 C16 14.34 16 13.68 16 13 C16.99 13.33 17.98 13.66 19 14 C19.66 13.01 20.32 12.02 21 11 C21.99 11.33 22.98 11.66 24 12 C22.5217985 13.97989413 21.0424882 15.95894218 19.5625 17.9375 C19.14162109 18.50146484 18.72074219 19.06542969 18.28710938 19.64648438 C15.11328125 23.88671875 15.11328125 23.88671875 14 25 C11.47905924 25.08847743 8.98569107 25.11527301 6.46484375 25.09765625 C5.33496788 25.09553383 5.33496788 25.09553383 4.18226624 25.09336853 C1.7673044 25.08775376 -0.64756601 25.07519883 -3.0625 25.0625 C-4.69596221 25.0574869 -6.32942586 25.05292366 -7.96289062 25.04882812 C-11.97529585 25.03777954 -15.98763241 25.02050506 -20 25 C-20.33 24.34 -20.66 23.68 -21 23 C-6.59597653 2.19865884 -6.59597653 2.19865884 0 0 Z " fill="#DA221F" transform="translate(588,569)"/>
<path d="M0 0 C1.32 0 2.64 0 4 0 C4 0.66 4 1.32 4 2 C3.34 2 2.68 2 2 2 C2.020625 2.969375 2.04125 3.93875 2.0625 4.9375 C2 8 2 8 1 9 C1.99 9.33 2.98 9.66 4 10 C4 10.66 4 11.32 4 12 C3.01 12 2.02 12 1 12 C0.67 14.64 0.34 17.28 0 20 C0.66 20 1.32 20 2 20 C2.495 22.475 2.495 22.475 3 25 C2.34 24.67 1.68 24.34 1 24 C-0.44252448 23.86411404 -1.8905718 23.78451383 -3.33862305 23.73461914 C-4.23683273 23.70110855 -5.13504242 23.66759796 -6.06047058 23.6330719 C-7.03438248 23.60075974 -8.00829437 23.56844757 -9.01171875 23.53515625 C-11.06966977 23.4565976 -13.12761222 23.37781438 -15.18554688 23.29882812 C-18.43308488 23.17943875 -21.68067554 23.06273596 -24.9284668 22.95043945 C-28.06071349 22.84035592 -31.19241512 22.71961637 -34.32421875 22.59765625 C-35.76990486 22.55222435 -35.76990486 22.55222435 -37.24479675 22.50587463 C-42.49503171 22.29526821 -47.01874548 21.69275934 -52 20 C-51.67 19.34 -51.34 18.68 -51 18 C-48.43310547 17.60571289 -48.43310547 17.60571289 -44.9921875 17.41015625 C-43.72213867 17.33684082 -42.45208984 17.26352539 -41.14355469 17.18798828 C-34.13980092 16.85585451 -27.13370323 16.6327618 -20.125 16.4375 C-18.64712754 16.39414778 -17.16926287 16.35052928 -15.69140625 16.30664062 C-12.12768821 16.20137226 -8.56387995 16.09965534 -5 16 C-5.495 13.525 -5.495 13.525 -6 11 C-6.804375 11.01160156 -7.60875 11.02320313 -8.4375 11.03515625 C-20.64238872 11.12883412 -32.81043078 10.56942204 -45 10 C-45 9.67 -45 9.34 -45 9 C-31.65812903 8.37167542 -18.35803926 7.84076509 -5 8 C-4.01 8 -3.02 8 -2 8 C-2 7.34 -2 6.68 -2 6 C-2.66 6 -3.32 6 -4 6 C-4 5.34 -4 4.68 -4 4 C-2.68 4 -1.36 4 0 4 C0 2.68 0 1.36 0 0 Z " fill="#E72523" transform="translate(588,464)"/>
<path d="M0 0 C2.12890625 0.94921875 2.12890625 0.94921875 3.12890625 2.94921875 C2.7890625 4.89453125 2.7890625 4.89453125 2.19140625 7.07421875 C1.99675781 7.79867187 1.80210937 8.523125 1.6015625 9.26953125 C1.44558594 9.82382812 1.28960938 10.378125 1.12890625 10.94921875 C2.44890625 10.94921875 3.76890625 10.94921875 5.12890625 10.94921875 C5.12890625 12.26921875 5.12890625 13.58921875 5.12890625 14.94921875 C4.46890625 14.94921875 3.80890625 14.94921875 3.12890625 14.94921875 C3.12890625 15.60921875 3.12890625 16.26921875 3.12890625 16.94921875 C1.80890625 16.94921875 0.48890625 16.94921875 -0.87109375 16.94921875 C-0.87109375 17.60921875 -0.87109375 18.26921875 -0.87109375 18.94921875 C0.44890625 18.94921875 1.76890625 18.94921875 3.12890625 18.94921875 C2.79890625 20.59921875 2.46890625 22.24921875 2.12890625 23.94921875 C-1.55297464 25.31287834 -3.34406484 24.39620497 -6.87109375 22.94921875 C-7.86109375 23.27921875 -8.85109375 23.60921875 -9.87109375 23.94921875 C-12.33603847 23.21748312 -14.66626722 22.43073687 -17.05859375 21.51171875 C-17.71279297 21.26873047 -18.36699219 21.02574219 -19.04101562 20.77539062 C-20.65412661 20.17488945 -22.26303725 19.56312672 -23.87109375 18.94921875 C-23.74609375 17.19921875 -23.74609375 17.19921875 -22.87109375 14.94921875 C-20.92024254 13.54495477 -18.90903082 12.22381292 -16.87109375 10.94921875 C-15.69920556 10.02306512 -14.54195498 9.0781507 -13.3984375 8.1171875 C-12.80869141 7.62927734 -12.21894531 7.14136719 -11.61132812 6.63867188 C-10.39755629 5.62741452 -9.19191106 4.60633181 -7.99414062 3.57617188 C-3.54659524 -0.0627289 -3.54659524 -0.0627289 0 0 Z " fill="#E52C21" transform="translate(660.87109375,511.05078125)"/>
<path d="M0 0 C0.99 0.33 1.98 0.66 3 1 C2.814375 1.639375 2.62875 2.27875 2.4375 2.9375 C2.293125 3.618125 2.14875 4.29875 2 5 C2.33 5.33 2.66 5.66 3 6 C3.07205511 7.68608966 3.08386068 9.37500659 3.0625 11.0625 C3.05347656 11.98160156 3.04445313 12.90070312 3.03515625 13.84765625 C3.02355469 14.55792969 3.01195312 15.26820313 3 16 C3.66 16 4.32 16 5 16 C5 14.68 5 13.36 5 12 C6.32 12 7.64 12 9 12 C11 15 11 15 10.6875 17.5 C10.17901328 19.34904262 9.60642538 21.18072387 9 23 C8.34 23 7.68 23 7 23 C7.33 23.99 7.66 24.98 8 26 C6.5625 28.1875 6.5625 28.1875 5 30 C4.34 29.67 3.68 29.34 3 29 C3 26 3 23 3 20 C1.68 20 0.36 20 -1 20 C-1 20.66 -1 21.32 -1 22 C-2.98 21.34 -4.96 20.68 -7 20 C-7 20.66 -7 21.32 -7 22 C-7.66 22 -8.32 22 -9 22 C-9 21.34 -9 20.68 -9 20 C-9.66 20 -10.32 20 -11 20 C-11 18.68 -11 17.36 -11 16 C-10.01 16 -9.02 16 -8 16 C-7.67 14.68 -7.34 13.36 -7 12 C-8.65 12.33 -10.3 12.66 -12 13 C-9.91093035 9.13961564 -7.64201183 6.53447389 -4.3125 3.6875 C-3.50425781 2.99011719 -2.69601562 2.29273438 -1.86328125 1.57421875 C-1.24839844 1.05472656 -0.63351562 0.53523437 0 0 Z " fill="#E32120" transform="translate(607,550)"/>
<path d="M0 0 C0 0.33 0 0.66 0 1 C-0.80743652 0.99476318 -1.61487305 0.98952637 -2.44677734 0.98413086 C-6.08951038 0.96340071 -9.73223102 0.95035251 -13.375 0.9375 C-14.64601563 0.92912109 -15.91703125 0.92074219 -17.2265625 0.91210938 C-18.43828125 0.90888672 -19.65 0.90566406 -20.8984375 0.90234375 C-22.01911621 0.89710693 -23.13979492 0.89187012 -24.29443359 0.88647461 C-26.96867343 0.81378534 -26.96867343 0.81378534 -29 2 C-29 2.66 -29 3.32 -29 4 C-27.081875 3.938125 -27.081875 3.938125 -25.125 3.875 C-22.9453125 3.8046875 -22.9453125 3.8046875 -21 4 C-20.34 4.66 -19.68 5.32 -19 6 C-19.66 6.33 -20.32 6.66 -21 7 C-20.01 7.66 -19.02 8.32 -18 9 C-19.17175781 8.9278125 -20.34351563 8.855625 -21.55078125 8.78125 C-36.15507954 7.90586437 -50.40227252 8.10069006 -65 9 C-65 8.01 -65 7.02 -65 6 C-43.99678868 -0.102703 -21.8303185 -4.01819584 0 0 Z " fill="#D81C11" transform="translate(627,430)"/>
<path d="M0 0 C0.66 0.33 1.32 0.66 2 1 C1.67 1.66 1.34 2.32 1 3 C1.99 3.33 2.98 3.66 4 4 C3.67 4.99 3.34 5.98 3 7 C3.66 7 4.32 7 5 7 C5.66 8.32 6.32 9.64 7 11 C8.98 11 10.96 11 13 11 C13 11.66 13 12.32 13 13 C15.97 13.495 15.97 13.495 19 14 C19.33 14.99 19.66 15.98 20 17 C18.2126038 18.33905267 16.41995047 19.67109066 14.625 21 C13.62726562 21.7425 12.62953125 22.485 11.6015625 23.25 C9 25 9 25 7 25 C6.67 23.68 6.34 22.36 6 21 C5.01 21 4.02 21 3 21 C3 20.34 3 19.68 3 19 C2.34 19 1.68 19 1 19 C1 18.34 1 17.68 1 17 C0.34 17 -0.32 17 -1 17 C-1 16.34 -1 15.68 -1 15 C-1.66 15 -2.32 15 -3 15 C-3 14.34 -3 13.68 -3 13 C-2.34 13 -1.68 13 -1 13 C-1.33 12.01 -1.66 11.02 -2 10 C-2.99 10.33 -3.98 10.66 -5 11 C-5.66 10.34 -6.32 9.68 -7 9 C-7.66 8.67 -8.32 8.34 -9 8 C-6.03 5.36 -3.06 2.72 0 0 Z " fill="#E9332A" transform="translate(625,501)"/>
<path d="M0 0 C0.99 0.495 0.99 0.495 2 1 C2 2.32 2 3.64 2 5 C2.66 5 3.32 5 4 5 C3.67 6.32 3.34 7.64 3 9 C2.01 8.67 1.02 8.34 0 8 C-2.03966481 7.91088827 -4.08217286 7.88239955 -6.1237793 7.88647461 C-7.38486008 7.88655014 -8.64594086 7.88662567 -9.94523621 7.88670349 C-11.32156412 7.89181011 -12.69789163 7.89702611 -14.07421875 7.90234375 C-15.48240611 7.90420914 -16.89059411 7.90563247 -18.29878235 7.90663147 C-22.0026733 7.91044712 -25.70652495 7.92026928 -29.41040039 7.93133545 C-33.19091256 7.94157003 -36.97143109 7.94613348 -40.75195312 7.95117188 C-48.16798665 7.9618924 -55.58398782 7.9789574 -63 8 C-63 6.68 -63 5.36 -63 4 C-55.34190448 3.97685409 -47.68381258 3.9590734 -40.02569008 3.94818783 C-36.46991365 3.94296394 -32.91416111 3.93587522 -29.35839844 3.92456055 C-25.27278409 3.91164086 -21.18719494 3.90676771 -17.1015625 3.90234375 C-15.18121689 3.89460182 -15.18121689 3.89460182 -13.22207642 3.88670349 C-12.04100311 3.88662796 -10.85992981 3.88655243 -9.64306641 3.88647461 C-8.07753525 3.88314369 -8.07753525 3.88314369 -6.4803772 3.87974548 C-4 4 -4 4 -2 5 C-2.495 3.02 -2.495 3.02 -3 1 C-2.01 0.67 -1.02 0.34 0 0 Z " fill="#E11D19" transform="translate(582,465)"/>
<path d="M0 0 C0.99 0 1.98 0 3 0 C5.94205422 13.23924397 4.12415366 27.94606339 -3.01171875 39.5234375 C-3.50091797 40.25433594 -3.50091797 40.25433594 -4 41 C-4.66 41 -5.32 41 -6 41 C-6 40.34 -6 39.68 -6 39 C-5.34 39 -4.68 39 -4 39 C-4 37.35 -4 35.7 -4 34 C-4.66 34 -5.32 34 -6 34 C-6 32.68 -6 31.36 -6 30 C-7.32 30.33 -8.64 30.66 -10 31 C-9.42997149 27.42322773 -8.48322304 24.81750642 -6.6875 21.6875 C-3.12017602 14.85358574 -1.65975615 7.47353885 0 0 Z " fill="#E1211A" transform="translate(738,420)"/>
<path d="M0 0 C0.66 0.33 1.32 0.66 2 1 C2.75324968 9.11835767 1.98493403 14.35647816 -2.4921875 21.234375 C-3.23855469 22.10835938 -3.23855469 22.10835938 -4 23 C-4.66 23 -5.32 23 -6 23 C-6.309375 23.8353125 -6.309375 23.8353125 -6.625 24.6875 C-8.55000774 27.92501302 -11.03850902 29.68231141 -14 32 C-14 28.8525787 -13.399734 27.71198463 -12 25 C-12 24.34 -12 23.68 -12 23 C-12.99 23 -13.98 23 -15 23 C-15 23.66 -15 24.32 -15 25 C-15.66 25 -16.32 25 -17 25 C-17 21 -17 21 -14.89453125 18.76953125 C-14.43771973 18.34881348 -13.9809082 17.9280957 -13.51025391 17.49462891 C-10.52926863 14.54448474 -8.16698921 11.05876176 -5.6875 7.6875 C-5.13771484 6.94693359 -4.58792969 6.20636719 -4.02148438 5.44335938 C-2.67727821 3.63160324 -1.33691256 1.817141 0 0 Z " fill="#E4413A" transform="translate(645,459)"/>
<path d="M0 0 C0.66 0.33 1.32 0.66 2 1 C2 1.66 2 2.32 2 3 C2.66 3 3.32 3 4 3 C4.33 2.34 4.66 1.68 5 1 C5.33 2.32 5.66 3.64 6 5 C5.34 5 4.68 5 4 5 C4 5.66 4 6.32 4 7 C4.66 7 5.32 7 6 7 C6 7.66 6 8.32 6 9 C6.66 9 7.32 9 8 9 C8 9.66 8 10.32 8 11 C8.66 11 9.32 11 10 11 C10 11.66 10 12.32 10 13 C10.99 13 11.98 13 13 13 C13.33 14.65 13.66 16.3 14 18 C12.90241493 18.84198307 11.79664683 19.67330671 10.6875 20.5 C10.07261719 20.9640625 9.45773437 21.428125 8.82421875 21.90625 C7 23 7 23 4 23 C4 21.02 4 19.04 4 17 C2.02 17 0.04 17 -2 17 C-2.144375 15.906875 -2.28875 14.81375 -2.4375 13.6875 C-2.88288104 10.06877013 -2.88288104 10.06877013 -4 7 C-4.66 6.67 -5.32 6.34 -6 6 C-3.375 1.125 -3.375 1.125 0 0 Z " fill="#E52523" transform="translate(618,509)"/>
<path d="M0 0 C0 0.66 0 1.32 0 2 C-2.31 2.66 -4.62 3.32 -7 4 C-6.67 4.99 -6.34 5.98 -6 7 C-5.34 7 -4.68 7 -4 7 C-4 7.66 -4 8.32 -4 9 C-3.34 9 -2.68 9 -2 9 C-2 9.66 -2 10.32 -2 11 C-5.3 10.34 -8.6 9.68 -12 9 C-12 8.34 -12 7.68 -12 7 C-17.94 7 -23.88 7 -30 7 C-28.68 6.01 -27.36 5.02 -26 4 C-28.64 3.67 -31.28 3.34 -34 3 C-34 2.34 -34 1.68 -34 1 C-34.66 0.67 -35.32 0.34 -36 0 C-25.11576257 -3.312594 -11.24548181 -0.71399884 0 0 Z " fill="#EB1F1C" transform="translate(632,431)"/>
<path d="M0 0 C1.62239443 0.00503144 3.2447904 0.0095914 4.8671875 0.01367188 C8.78649721 0.02453258 12.70573094 0.04170388 16.625 0.0625 C14.0595406 2.6279594 12.14813332 2.60296087 8.625 3.0625 C14.07 3.5575 14.07 3.5575 19.625 4.0625 C19.625 4.3925 19.625 4.7225 19.625 5.0625 C13.20210161 5.11337056 6.77925554 5.1483051 0.35620117 5.17236328 C-1.82708681 5.18239692 -4.01036143 5.1960269 -6.19360352 5.21337891 C-9.33873805 5.23774313 -12.48369429 5.24900971 -15.62890625 5.2578125 C-16.5989711 5.26813507 -17.56903595 5.27845764 -18.5684967 5.28909302 C-23.90957393 5.28996961 -28.32369152 4.82664278 -33.375 3.0625 C-33.045 2.4025 -32.715 1.7425 -32.375 1.0625 C-21.81334131 -0.6676921 -10.67495411 -0.05839932 0 0 Z " fill="#E21916" transform="translate(569.375,480.9375)"/>
<path d="M0 0 C0.33 1.32 0.66 2.64 1 4 C1.99 4 2.98 4 4 4 C4 4.66 4 5.32 4 6 C4.66 6.33 5.32 6.66 6 7 C6 10.85992162 4.79428431 11.86082044 2.4375 14.875 C-2.11633529 20.93866303 -5.56944216 27.25680974 -9 34 C-9.99 34 -10.98 34 -12 34 C-11.43034087 28.76456132 -10.16859634 24.1633323 -8.25 19.25 C-7.85337158 18.21262695 -7.85337158 18.21262695 -7.44873047 17.15429688 C-5.1942115 11.33113478 -2.69686633 5.63239339 0 0 Z " fill="#D03430" transform="translate(563,574)"/>
<path d="M0 0 C16.5 0 33 0 50 0 C50 0.33 50 0.66 50 1 C47.36 1 44.72 1 42 1 C42 1.66 42 2.32 42 3 C43.65 3 45.3 3 47 3 C47 3.33 47 3.66 47 4 C40.48552273 4.02529705 33.97105807 4.04284444 27.45654297 4.05493164 C25.23909024 4.05996909 23.02164084 4.06679922 20.80419922 4.07543945 C17.62206195 4.08753072 14.43996849 4.0932341 11.2578125 4.09765625 C10.26194122 4.10281754 9.26606995 4.10797882 8.24002075 4.11329651 C6.85881546 4.11340981 6.85881546 4.11340981 5.44970703 4.11352539 C4.6369632 4.115746 3.82421936 4.11796661 2.98684692 4.12025452 C1 4 1 4 -1 3 C-0.67 2.01 -0.34 1.02 0 0 Z " fill="#DD110F" transform="translate(502,457)"/>
<path d="M0 0 C0.33 0 0.66 0 1 0 C1 2.64 1 5.28 1 8 C0.01 7.67 -0.98 7.34 -2 7 C-2.99 11.29 -3.98 15.58 -5 20 C-5.66 20 -6.32 20 -7 20 C-7 19.34 -7 18.68 -7 18 C-8.32 18 -9.64 18 -11 18 C-11 19.32 -11 20.64 -11 22 C-10.278125 21.896875 -9.55625 21.79375 -8.8125 21.6875 C-4.87958411 22.12449065 -3.53678077 24.10082197 -1 27 C-3.31 28.98 -5.62 30.96 -8 33 C-9.06546953 29.8035914 -9.07427838 27.34252724 -9 24 C-14.40787385 25.09786425 -14.40787385 25.09786425 -18 29 C-18.99 28.67 -19.98 28.34 -21 28 C-18.8145796 25.01930289 -16.62627139 22.04073706 -14.4375 19.0625 C-13.82841797 18.23169922 -13.21933594 17.40089844 -12.59179688 16.54492188 C-3.22942286 3.81407466 -3.22942286 3.81407466 0 0 Z " fill="#D32525" transform="translate(591,534)"/>
<path d="M0 0 C0.66 0.33 1.32 0.66 2 1 C1.34 2.98 0.68 4.96 0 7 C1.32 7 2.64 7 4 7 C4 7.66 4 8.32 4 9 C4.66 9 5.32 9 6 9 C6 10.98 6 12.96 6 15 C5.01 15 4.02 15 3 15 C3 15.99 3 16.98 3 18 C-2.36095277 16.41078475 -7.70843973 14.81027062 -13 13 C-12.875 11.25 -12.875 11.25 -12 9 C-10.05017465 7.59431196 -8.04049422 6.2704964 -6 5 C-3.95038424 3.38529142 -1.98177735 1.6986663 0 0 Z " fill="#E63027" transform="translate(650,517)"/>
<path d="M0 0 C0 0.33 0 0.66 0 1 C-1.20160767 1.03758423 -1.20160767 1.03758423 -2.42749023 1.07592773 C-6.09762026 1.19279735 -9.76755017 1.31510745 -13.4375 1.4375 C-14.69755859 1.47681641 -15.95761719 1.51613281 -17.25585938 1.55664062 C-24.97371306 1.80554874 -24.97371306 1.80554874 -32.65625 2.53125 C-38.11577878 3.213134 -43.56899308 3.10755715 -49.0625 3.0625 C-50.11888672 3.05798828 -51.17527344 3.05347656 -52.26367188 3.04882812 C-54.84250908 3.03715918 -57.42122294 3.02078885 -60 3 C-59.67 2.01 -59.34 1.02 -59 0 C-53.02273668 -0.2872509 -47.04536122 -0.57200029 -41.06787109 -0.85449219 C-39.03691435 -0.9508196 -37.00598919 -1.04781521 -34.97509766 -1.14550781 C-32.04598018 -1.28628933 -29.11675534 -1.42462031 -26.1875 -1.5625 C-25.28821777 -1.60624756 -24.38893555 -1.64999512 -23.46240234 -1.69506836 C-15.27233602 -2.07626924 -7.94003114 -2.26858033 0 0 Z " fill="#D64440" transform="translate(544,445)"/>
<path d="M0 0 C1.94202011 0.97618418 3.83222572 1.99321758 5.69921875 3.10546875 C5.69921875 3.76546875 5.69921875 4.42546875 5.69921875 5.10546875 C1.40336252 6.36895588 -1.2127412 5.88287747 -5.30078125 4.10546875 C-7.17578125 2.48046875 -7.17578125 2.48046875 -8.30078125 1.10546875 C-8.73390625 2.06453125 -8.73390625 2.06453125 -9.17578125 3.04296875 C-10.30078125 5.10546875 -10.30078125 5.10546875 -12.30078125 6.10546875 C-12.70807353 8.42703472 -13.04516802 10.76234745 -13.30078125 13.10546875 C-14.08453125 13.39421875 -14.86828125 13.68296875 -15.67578125 13.98046875 C-18.39749757 14.95459129 -18.39749757 14.95459129 -20.30078125 17.10546875 C-24.30078125 12.35546875 -24.30078125 12.35546875 -24.30078125 10.10546875 C-23.64078125 10.10546875 -22.98078125 10.10546875 -22.30078125 10.10546875 C-21.97078125 9.44546875 -21.64078125 8.78546875 -21.30078125 8.10546875 C-20.64078125 8.10546875 -19.98078125 8.10546875 -19.30078125 8.10546875 C-19.30078125 8.76546875 -19.30078125 9.42546875 -19.30078125 10.10546875 C-18.64078125 10.10546875 -17.98078125 10.10546875 -17.30078125 10.10546875 C-17.30078125 8.12546875 -17.30078125 6.14546875 -17.30078125 4.10546875 C-15.98078125 3.44546875 -14.66078125 2.78546875 -13.30078125 2.10546875 C-13.30078125 1.44546875 -13.30078125 0.78546875 -13.30078125 0.10546875 C-8.72892912 -1.41848196 -4.50396115 -1.75111563 0 0 Z " fill="#E51C1A" transform="translate(669.30078125,441.89453125)"/>
<path d="M0 0 C21.68760286 -0.16460698 43.32523432 0.30051396 65 1 C65 1.33 65 1.66 65 2 C59.64333324 2.16762152 54.28651915 2.32818051 48.92944336 2.48217773 C47.10679417 2.53557027 45.28420059 2.5908975 43.46166992 2.64819336 C40.84305818 2.73018093 38.22432573 2.80522482 35.60546875 2.87890625 C34.78974899 2.90594131 33.97402924 2.93297638 33.1335907 2.96083069 C29.80145255 3.04887557 27.18862422 3.06287474 24 2 C24 2.99 24 3.98 24 5 C21.89611431 5.05402274 19.79183286 5.09280256 17.6875 5.125 C15.92986328 5.15980469 15.92986328 5.15980469 14.13671875 5.1953125 C11 5 11 5 8 3 C5.95415921 2.33841957 5.95415921 2.33841957 3.8125 1.875 C2.554375 1.58625 1.29625 1.2975 0 1 C0 0.67 0 0.34 0 0 Z " fill="#ED1F1A" transform="translate(536,443)"/>
<path d="M0 0 C1.1338916 -0.00080566 2.2677832 -0.00161133 3.43603516 -0.00244141 C8.59055693 0.03206008 13.4193336 0.24498185 18.5 1.1875 C18.5 1.5175 18.5 1.8475 18.5 2.1875 C17.69256348 2.18226318 16.88512695 2.17702637 16.05322266 2.17163086 C12.41048962 2.15090071 8.76776898 2.13785251 5.125 2.125 C3.85398437 2.11662109 2.58296875 2.10824219 1.2734375 2.09960938 C0.06171875 2.09638672 -1.15 2.09316406 -2.3984375 2.08984375 C-3.51911621 2.08460693 -4.63979492 2.07937012 -5.79443359 2.07397461 C-8.46867343 2.00128534 -8.46867343 2.00128534 -10.5 3.1875 C-10.5 3.8475 -10.5 4.5075 -10.5 5.1875 C-8.581875 5.125625 -8.581875 5.125625 -6.625 5.0625 C-4.4453125 4.9921875 -4.4453125 4.9921875 -2.5 5.1875 C-1.84 5.8475 -1.18 6.5075 -0.5 7.1875 C-1.49 7.6825 -1.49 7.6825 -2.5 8.1875 C-1.51 8.8475 -0.52 9.5075 0.5 10.1875 C-5.44 9.8575 -11.38 9.5275 -17.5 9.1875 C-17.5 8.8575 -17.5 8.5275 -17.5 8.1875 C-15.85 7.8575 -14.2 7.5275 -12.5 7.1875 C-12.5 6.5275 -12.5 5.8675 -12.5 5.1875 C-13.16 5.1875 -13.82 5.1875 -14.5 5.1875 C-14.5 4.5275 -14.5 3.8675 -14.5 3.1875 C-15.02078125 3.35121094 -15.5415625 3.51492188 -16.078125 3.68359375 C-19.1756875 4.32808659 -22.08841094 4.28161589 -25.25 4.25 C-26.42046875 4.24097656 -27.5909375 4.23195313 -28.796875 4.22265625 C-29.68890625 4.21105469 -30.5809375 4.19945312 -31.5 4.1875 C-22.33248802 -0.98280297 -10.18809882 0.00707016 0 0 Z " fill="#E54B44" transform="translate(608.5,428.8125)"/>
<path d="M0 0 C-0.33 0.66 -0.66 1.32 -1 2 C-5.78069758 3.52192244 -10.93216343 3.12565488 -15.89453125 3.09765625 C-16.84188644 3.0962413 -17.78924164 3.09482635 -18.76530457 3.09336853 C-21.78106895 3.08778611 -24.79675818 3.07523682 -27.8125 3.0625 C-29.86132705 3.05748273 -31.91015527 3.05292022 -33.95898438 3.04882812 C-38.97268506 3.03782243 -43.9863298 3.02056988 -49 3 C-49 2.67 -49 2.34 -49 2 C-32.77124435 -0.73738047 -16.39510261 -0.19505476 0 0 Z " fill="#ED3A33" transform="translate(548,446)"/>
<path d="M0 0 C0.66 0 1.32 0 2 0 C2 0.66 2 1.32 2 2 C3.32 1.67 4.64 1.34 6 1 C6 1.99 6 2.98 6 4 C3.98233508 5.96153661 1.98774313 7.73070839 -0.1875 9.5 C-0.76564453 9.98597656 -1.34378906 10.47195313 -1.93945312 10.97265625 C-5.14638881 13.63241986 -8.34792579 15.96419215 -12 18 C-12.33 17.01 -12.66 16.02 -13 15 C-12.01 15 -11.02 15 -10 15 C-10 14.01 -10 13.02 -10 12 C-9.34 12 -8.68 12 -8 12 C-8 11.34 -8 10.68 -8 10 C-8.66 9.67 -9.32 9.34 -10 9 C-10 8.01 -10 7.02 -10 6 C-9.01 6.33 -8.02 6.66 -7 7 C-6.67 7 -6.34 7 -6 7 C-6 5.35 -6 3.7 -6 2 C-4.02 2 -2.04 2 0 2 C0 1.34 0 0.68 0 0 Z " fill="#E53A36" transform="translate(664,494)"/>
<path d="M0 0 C11.55 0 23.1 0 35 0 C35.495 1.485 35.495 1.485 36 3 C33.03 3 30.06 3 27 3 C27 2.34 27 1.68 27 1 C23.37 1.33 19.74 1.66 16 2 C16 2.66 16 3.32 16 4 C10.39 4 4.78 4 -1 4 C-0.67 2.68 -0.34 1.36 0 0 Z " fill="#E11A1A" transform="translate(561,494)"/>
<path d="M0 0 C0.99 0 1.98 0 3 0 C3 1.32 3 2.64 3 4 C3.66 4 4.32 4 5 4 C4.67 5.32 4.34 6.64 4 8 C-1.48269069 9.15664737 -6.80339274 9.11416255 -12.375 9.0625 C-13.30183594 9.05798828 -14.22867188 9.05347656 -15.18359375 9.04882812 C-17.45579709 9.03711574 -19.72786388 9.02071372 -22 9 C-22 8.01 -22 7.02 -22 6 C-19.24921116 5.08307039 -17.64051087 4.89113917 -14.8125 4.9375 C-12.9253125 4.9684375 -12.9253125 4.9684375 -11 5 C-11 5.66 -11 6.32 -11 7 C-8.03 7 -5.06 7 -2 7 C-2.33 5.68 -2.66 4.36 -3 3 C-2.34 3 -1.68 3 -1 3 C-0.67 2.01 -0.34 1.02 0 0 Z " fill="#E81719" transform="translate(599,490)"/>
<path d="M0 0 C2.96723366 0.31791789 3.9806331 0.98045444 6.1171875 3.13671875 C8.39051857 6.5938799 8.47863975 8.52651894 8.375 12.625 C8.36210938 13.75164062 8.34921875 14.87828125 8.3359375 16.0390625 C8 19 8 19 6 22 C5.34 22 4.68 22 4 22 C4.99 18.535 4.99 18.535 6 15 C5.01 15 4.02 15 3 15 C3 13.02 3 11.04 3 9 C2.34 9 1.68 9 1 9 C1 7.68 1 6.36 1 5 C0.34 5 -0.32 5 -1 5 C-0.67 3.35 -0.34 1.7 0 0 Z " fill="#E71F1B" transform="translate(695,417)"/>
<path d="M0 0 C1.5 1.3125 1.5 1.3125 3 3 C3 3.99 3 4.98 3 6 C-1.20373206 7.17550604 -5.29612475 7.16196842 -9.6328125 7.16796875 C-10.46585907 7.17129715 -11.29890564 7.17462555 -12.15719604 7.17805481 C-13.91387379 7.183108 -15.67056109 7.18546363 -17.42724609 7.18530273 C-20.12222892 7.18749774 -22.81680784 7.20569341 -25.51171875 7.22460938 C-27.2187486 7.22754187 -28.92578039 7.22952763 -30.6328125 7.23046875 C-31.84531174 7.24124702 -31.84531174 7.24124702 -33.08230591 7.25224304 C-38.77116459 7.22883541 -38.77116459 7.22883541 -41 5 C-40.67 4.01 -40.34 3.02 -40 2 C-39.34 2.66 -38.68 3.32 -38 4 C-35.20315203 4.17525055 -32.5067192 4.23143189 -29.7109375 4.1953125 C-28.89251373 4.1924826 -28.07408997 4.18965271 -27.23086548 4.18673706 C-24.61209607 4.17552532 -21.99366636 4.15041929 -19.375 4.125 C-17.60156743 4.11497147 -15.82812951 4.1058454 -14.0546875 4.09765625 C-9.70299374 4.07558278 -5.3515545 4.04104644 -1 4 C-0.67 2.68 -0.34 1.36 0 0 Z " fill="#EAA9A7" transform="translate(700,587)"/>
<path d="M0 0 C1.98 0 3.96 0 6 0 C6.38063221 2.3260857 6.71269945 4.66055264 7 7 C6 8 6 8 4.15234375 8.09765625 C2.1015625 8.06510417 0.05078125 8.03255208 -2 8 C-2 8.66 -2 9.32 -2 10 C-2.66 10 -3.32 10 -4 10 C-4 9.34 -4 8.68 -4 8 C-12.25 7.67 -20.5 7.34 -29 7 C-29 6.67 -29 6.34 -29 6 C-13.16 5.01 -13.16 5.01 3 4 C2.01 2.68 1.02 1.36 0 0 Z " fill="#E4453E" transform="translate(564,450)"/>
<path d="M0 0 C0.99 0 1.98 0 3 0 C3 1.98 3 3.96 3 6 C3.66 6 4.32 6 5 6 C4.45418801 9.79549259 2.94590705 11.30979295 0.0625 13.75 C-0.64777344 14.36359375 -1.35804688 14.9771875 -2.08984375 15.609375 C-4 17 -4 17 -6 17 C-5.67 14.69 -5.34 12.38 -5 10 C-5.66 10 -6.32 10 -7 10 C-7 9.34 -7 8.68 -7 8 C-5.68 8 -4.36 8 -3 8 C-3 6.68 -3 5.36 -3 4 C-2.34 4 -1.68 4 -1 4 C-0.67 2.68 -0.34 1.36 0 0 Z " fill="#DF2D2A" transform="translate(601,538)"/>
<path d="M0 0 C1.80791016 -0.00386719 1.80791016 -0.00386719 3.65234375 -0.0078125 C6.59472592 0.10678199 9.20739223 0.44237461 12.0625 1.125 C10.625 3.5625 10.625 3.5625 8.0625 6.125 C5.06945442 6.85651889 2.13696787 7.05273687 -0.9375 7.125 C-0.9375 6.465 -0.9375 5.805 -0.9375 5.125 C-3.5775 4.795 -6.2175 4.465 -8.9375 4.125 C-8.9375 3.465 -8.9375 2.805 -8.9375 2.125 C-9.5975 1.795 -10.2575 1.465 -10.9375 1.125 C-7.27802447 -0.02486014 -3.81803347 -0.00814948 0 0 Z " fill="#E32C23" transform="translate(606.9375,429.875)"/>
<path d="M0 0 C0.99 0.66 1.98 1.32 3 2 C3.66 1.67 4.32 1.34 5 1 C4.38737369 3.82080379 3.52845191 6.13808856 2.15234375 8.671875 C1.79462891 9.33574219 1.43691406 9.99960937 1.06835938 10.68359375 C0.69517578 11.36550781 0.32199219 12.04742188 -0.0625 12.75 C-0.43955078 13.44738281 -0.81660156 14.14476562 -1.20507812 14.86328125 C-2.13273388 16.57768302 -3.06583454 18.28913661 -4 20 C-4.99 20 -5.98 20 -7 20 C-6.40373356 13.29200257 -4.87551498 4.87551498 0 0 Z " fill="#C72527" transform="translate(558,588)"/>
<path d="M0 0 C1.98 0 3.96 0 6 0 C6.33 3.3 6.66 6.6 7 10 C4 12 4 12 2 12 C0.02 12.99 0.02 12.99 -2 14 C-2 10.7 -2 7.4 -2 4 C-1.34 4 -0.68 4 0 4 C0 2.68 0 1.36 0 0 Z " fill="#D9261E" transform="translate(576,558)"/>
<path d="M0 0 C19.47 0 38.94 0 59 0 C59 0.33 59 0.66 59 1 C42.5 1 26 1 9 1 C9 1.66 9 2.32 9 3 C10.32 3.33 11.64 3.66 13 4 C8.71 4 4.42 4 0 4 C0 2.68 0 1.36 0 0 Z " fill="#CA1B18" transform="translate(519,469)"/>
<path d="M0 0 C0.99 0.33 1.98 0.66 3 1 C4.7015625 0.9690625 4.7015625 0.9690625 6.4375 0.9375 C9.87844912 0.99786753 11.11970808 1.38577046 14 3 C11.81305975 5.52727101 9.61045024 7.90512725 7 10 C4.25 10.1875 4.25 10.1875 2 9 C0.125 7.25 0.125 7.25 -1 5 C-0.6875 2.25 -0.6875 2.25 0 0 Z " fill="#DA2222" transform="translate(602,501)"/>
<path d="M0 0 C1.32 0 2.64 0 4 0 C4 1.32 4 2.64 4 4 C4.66 4 5.32 4 6 4 C6 5.32 6 6.64 6 8 C6.66 8 7.32 8 8 8 C8.33 9.65 8.66 11.3 9 13 C8.34 12.67 7.68 12.34 7 12 C4.89625004 11.84558791 2.78804881 11.75007361 0.6796875 11.68359375 C-0.57714844 11.64169922 -1.83398438 11.59980469 -3.12890625 11.55664062 C-4.44761719 11.51732422 -5.76632812 11.47800781 -7.125 11.4375 C-8.46485751 11.39430488 -9.80470156 11.35069027 -11.14453125 11.30664062 C-14.42957815 11.20029019 -17.71470281 11.09826192 -21 11 C-21 10.67 -21 10.34 -21 10 C-19.94039062 9.95101563 -18.88078125 9.90203125 -17.7890625 9.8515625 C-16.40101503 9.77653291 -15.01299549 9.70098515 -13.625 9.625 C-12.57699219 9.57859375 -12.57699219 9.57859375 -11.5078125 9.53125 C-7.29814173 9.40500502 -7.29814173 9.40500502 -4 7 C-1.875 6.375 -1.875 6.375 0 6 C-1.32 5.34 -2.64 4.68 -4 4 C-2.35 4 -0.7 4 1 4 C0.67 2.68 0.34 1.36 0 0 Z " fill="#EB5E5D" transform="translate(582,476)"/>
<path d="M0 0 C4.90405117 4.1684435 4.90405117 4.1684435 5.375 8.25 C5 11 5 11 4 12 C1.98035801 12.07244053 -0.04167124 12.08377188 -2.0625 12.0625 C-3.16722656 12.05347656 -4.27195312 12.04445313 -5.41015625 12.03515625 C-6.69212891 12.01775391 -6.69212891 12.01775391 -8 12 C-5 10 -5 10 -3 10 C-3 9.34 -3 8.68 -3 8 C-3.66 8 -4.32 8 -5 8 C-5 6 -5 6 -3 4 C-3 3.34 -3 2.68 -3 2 C-2.01 1.34 -1.02 0.68 0 0 Z " fill="#D72423" transform="translate(695,580)"/>
<path d="M0 0 C3.15209574 2.93638941 5.4168766 5.97033067 7.6875 9.625 C8.28949219 10.58664062 8.89148438 11.54828125 9.51171875 12.5390625 C11 15 11 15 12 17 C10.35 17.33 8.7 17.66 7 18 C6.67 15.69 6.34 13.38 6 11 C3.69 11.33 1.38 11.66 -1 12 C-1.5625 10.0625 -1.5625 10.0625 -2 8 C-1.67 7.67 -1.34 7.34 -1 7 C-1.66 6.67 -2.32 6.34 -3 6 C-3 5.34 -3 4.68 -3 4 C-2.01 4 -1.02 4 0 4 C0 2.68 0 1.36 0 0 Z " fill="#DA2726" transform="translate(683,562)"/>
<path d="M0 0 C0.33 0.99 0.66 1.98 1 3 C-0.28062485 4.7074998 -1.61767557 6.37373596 -3 8 C-3.33 8.99 -3.66 9.98 -4 11 C-3.41621582 10.99476318 -2.83243164 10.98952637 -2.23095703 10.98413086 C0.47101724 10.96305919 3.17297411 10.95024541 5.875 10.9375 C7.25171875 10.92493164 7.25171875 10.92493164 8.65625 10.91210938 C14.8335647 10.89035827 20.86721835 11.26069892 27 12 C27 12.33 27 12.66 27 13 C15.78 13 4.56 13 -7 13 C-7.33 12.34 -7.66 11.68 -8 11 C-5.36 7.37 -2.72 3.74 0 0 Z " fill="#D45554" transform="translate(575,581)"/>
<path d="M0 0 C4.51617599 -0.07654536 8.59085217 -0.10228696 13 1 C13 2.32 13 3.64 13 5 C12.34 5 11.68 5 11 5 C11 5.66 11 6.32 11 7 C7.68518735 8.10493755 5.33868884 8.05432279 2 7 C0 4 0 4 0 0 Z " fill="#E6322E" transform="translate(641,561)"/>
<path d="M0 0 C0 0.66 0 1.32 0 2 C0.66 2 1.32 2 2 2 C2 2.66 2 3.32 2 4 C2.99 4 3.98 4 5 4 C5 5.98 5 7.96 5 10 C4.01 10.495 4.01 10.495 3 11 C3 10.34 3 9.68 3 9 C1.35 9.66 -0.3 10.32 -2 11 C-2 10.01 -2 9.02 -2 8 C-2.66 8 -3.32 8 -4 8 C-4 7.34 -4 6.68 -4 6 C-3.34 6 -2.68 6 -2 6 C-2.33 5.01 -2.66 4.02 -3 3 C-3.33 3.33 -3.66 3.66 -4 4 C-5.99958364 4.04080783 -8.00045254 4.04254356 -10 4 C-10 3.34 -10 2.68 -10 2 C-6.38026598 0.68373308 -3.90432869 0 0 0 Z " fill="#E62E21" transform="translate(722,458)"/>
<path d="M0 0 C0.87140625 -0.02835937 1.7428125 -0.05671875 2.640625 -0.0859375 C3.79111328 -0.12460937 3.79111328 -0.12460937 4.96484375 -0.1640625 C7.48288438 0.25148841 8.35315361 1.23393829 9.953125 3.1640625 C7.313125 3.1640625 4.673125 3.1640625 1.953125 3.1640625 C1.953125 2.5040625 1.953125 1.8440625 1.953125 1.1640625 C0.963125 1.4940625 -0.026875 1.8240625 -1.046875 2.1640625 C-0.716875 2.8240625 -0.386875 3.4840625 -0.046875 4.1640625 C-4.52724543 6.40424772 -10.42454139 5.51214727 -15.109375 4.1640625 C-16.07875 3.8340625 -17.048125 3.5040625 -18.046875 3.1640625 C-17.716875 2.5040625 -17.386875 1.8440625 -17.046875 1.1640625 C-11.4125145 0.33340574 -5.68289776 0.30600219 0 0 Z " fill="#C65654" transform="translate(554.046875,480.8359375)"/>
<path d="M0 0 C1.32 0 2.64 0 4 0 C4.06649828 4.18939138 3.95307108 7.67815267 1.4453125 11.15625 C-0.30132614 12.92463103 -1.98082326 14.5497368 -4 16 C-4.66 16 -5.32 16 -6 16 C-5.67 15.01 -5.34 14.02 -5 13 C-4.34 13 -3.68 13 -3 13 C-3.33 10.69 -3.66 8.38 -4 6 C-4.66 6 -5.32 6 -6 6 C-5.67 4.68 -5.34 3.36 -5 2 C-4.67 2.66 -4.34 3.32 -4 4 C-2.68 4 -1.36 4 0 4 C0 2.68 0 1.36 0 0 Z " fill="#E21F1C" transform="translate(676,480)"/>
<path d="M0 0 C0.66 0 1.32 0 2 0 C2 0.66 2 1.32 2 2 C10.25 2 18.5 2 27 2 C27 2.66 27 3.32 27 4 C18.85141101 6.59273286 8.33508938 5.36083092 0 4 C0 2.68 0 1.36 0 0 Z " fill="#D73B34" transform="translate(690,468)"/>
<path d="M0 0 C2.73949307 3.28739169 5.26584559 6.70565274 7.75 10.1875 C8.67039062 11.47720703 8.67039062 11.47720703 9.609375 12.79296875 C11 15 11 15 11 17 C10.34 17 9.68 17 9 17 C8.67 16.34 8.34 15.68 8 15 C5.97536745 14.34786708 5.97536745 14.34786708 4 14 C4 13.34 4 12.68 4 12 C3.34 12 2.68 12 2 12 C1.67 10.35 1.34 8.7 1 7 C0.01 7.33 -0.98 7.66 -2 8 C-2 6.68 -2 5.36 -2 4 C-2.66 4 -3.32 4 -4 4 C-4 3.34 -4 2.68 -4 2 C-2.68 2 -1.36 2 0 2 C0 1.34 0 0.68 0 0 Z " fill="#E33E33" transform="translate(612,456)"/>
<path d="M0 0 C0.66 0 1.32 0 2 0 C2 1.32 2 2.64 2 4 C3.32 4 4.64 4 6 4 C5.51058824 11.34117647 5.51058824 11.34117647 3.0625 14.5 C1 16 1 16 -1 16 C-0.690625 14.824375 -0.690625 14.824375 -0.375 13.625 C-0.25125 12.75875 -0.1275 11.8925 0 11 C-0.66 10.34 -1.32 9.68 -2 9 C-1.34 8.01 -0.68 7.02 0 6 C-0.66 6 -1.32 6 -2 6 C-1.34 4.02 -0.68 2.04 0 0 Z " fill="#D81F1A" transform="translate(590,544)"/>
<path d="M0 0 C3.65768752 3.65768752 4.84434575 5.28780328 5.3125 10.4375 C4.98447096 14.17703106 4.18092532 16.00122769 2 19 C1.01 18.67 0.02 18.34 -1 18 C-1 17.01 -1 16.02 -1 15 C-0.01 15 0.98 15 2 15 C1.67 14.67 1.34 14.34 1 14 C0.34 14 -0.32 14 -1 14 C-3 11 -3 11 -3 8 C-2.34 8 -1.68 8 -1 8 C-1 8.66 -1 9.32 -1 10 C-0.34 10 0.32 10 1 10 C0.67 6.7 0.34 3.4 0 0 Z " fill="#DC2926" transform="translate(677,528)"/>
<path d="M0 0 C1.32 0 2.64 0 4 0 C4 0.66 4 1.32 4 2 C4.61875 1.649375 5.2375 1.29875 5.875 0.9375 C6.926875 0.4734375 6.926875 0.4734375 8 0 C8.66 0.33 9.32 0.66 10 1 C9.01141124 3.69615116 8.35717864 4.80100047 5.8125 6.21875 C2.26072688 7.20535365 0.20885708 6.63110202 -3.3125 5.625 C-4.38113281 5.32851563 -5.44976563 5.03203125 -6.55078125 4.7265625 C-7.35902344 4.48679687 -8.16726563 4.24703125 -9 4 C-9 3.67 -9 3.34 -9 3 C-4.545 2.505 -4.545 2.505 0 2 C0 1.34 0 0.68 0 0 Z " fill="#E42F28" transform="translate(690,438)"/>
<path d="M0 0 C-0.66 0.99 -1.32 1.98 -2 3 C-4.4140625 3.328125 -4.4140625 3.328125 -7.625 3.25 C-8.85734375 3.22421875 -10.0896875 3.1984375 -11.359375 3.171875 C-12.90635085 3.1173745 -14.45321708 3.05972605 -16 3 C-16.99322266 2.96326172 -17.98644531 2.92652344 -19.00976562 2.88867188 C-26.00799825 2.62419158 -33.00429334 2.32417867 -40 2 C-40 1.67 -40 1.34 -40 1 C-26.65965829 0.37174743 -13.35700949 -0.17678395 0 0 Z " fill="#E85250" transform="translate(583,472)"/>
<path d="M0 0 C2 1 2 1 4 4 C3.34 5.32 2.68 6.64 2 8 C2.66 8 3.32 8 4 8 C4 8.66 4 9.32 4 10 C3.071875 9.938125 2.14375 9.87625 1.1875 9.8125 C-1.98395103 9.69105736 -1.98395103 9.69105736 -3.875 11.5 C-4.24625 11.995 -4.6175 12.49 -5 13 C-5.99 12.67 -6.98 12.34 -8 12 C-7.34 11.34 -6.68 10.68 -6 10 C-5.71125 9.05125 -5.4225 8.1025 -5.125 7.125 C-3.92760026 3.79888962 -2.6385591 2.28675122 0 0 Z " fill="#E5221E" transform="translate(640,488)"/>
<path d="M0 0 C1.125 3.75 1.125 3.75 0 6 C0.66 6.66 1.32 7.32 2 8 C3.32 7.01 4.64 6.02 6 5 C6.66 5.33 7.32 5.66 8 6 C7.67 6.66 7.34 7.32 7 8 C6.34 8 5.68 8 5 8 C4.79375 8.556875 4.5875 9.11375 4.375 9.6875 C2.44999226 12.92501302 -0.03850902 14.68231141 -3 17 C-3 13.8525787 -2.399734 12.71198463 -1 10 C-1 9.34 -1 8.68 -1 8 C-1.99 8 -2.98 8 -4 8 C-4 8.66 -4 9.32 -4 10 C-4.66 10 -5.32 10 -6 10 C-6 6 -6 6 -3.5625 3.3125 C-2.716875 2.549375 -1.87125 1.78625 -1 1 C-0.67 0.67 -0.34 0.34 0 0 Z " fill="#E44D47" transform="translate(634,474)"/>
<path d="M0 0 C-0.66 1.65 -1.32 3.3 -2 5 C-1.34 5 -0.68 5 0 5 C0 5.66 0 6.32 0 7 C-1.98 7 -3.96 7 -6 7 C-5.34 8.98 -4.68 10.96 -4 13 C-5.32 13 -6.64 13 -8 13 C-8 12.34 -8 11.68 -8 11 C-8.99 10.67 -9.98 10.34 -11 10 C-11 9.01 -11 8.02 -11 7 C-9.1015625 5.17578125 -9.1015625 5.17578125 -6.625 3.3125 C-5.81289063 2.68988281 -5.00078125 2.06726563 -4.1640625 1.42578125 C-2 0 -2 0 0 0 Z " fill="#E12F2E" transform="translate(620,541)"/>
<path d="M0 0 C2.625 0.375 2.625 0.375 5 1 C5 2.32 5 3.64 5 5 C5.66 5 6.32 5 7 5 C7 6.65 7 8.3 7 10 C6.34 10 5.68 10 5 10 C5.33 10.99 5.66 11.98 6 13 C3.03 15.475 3.03 15.475 0 18 C0 17.01 0 16.02 0 15 C0.66 15 1.32 15 2 15 C2.33 13.02 2.66 11.04 3 9 C3.66 9 4.32 9 5 9 C5 8.34 5 7.68 5 7 C4.34 7 3.68 7 3 7 C3 6.34 3 5.68 3 5 C2.34 5 1.68 5 1 5 C0.67 5.66 0.34 6.32 0 7 C-0.66 5.35 -1.32 3.7 -2 2 C-1.34 1.34 -0.68 0.68 0 0 Z " fill="#E51610" transform="translate(727,449)"/>
<path d="M0 0 C2.3125 -0.25 2.3125 -0.25 5 0 C6.97610386 2.04424538 8 3.1176825 8 6 C8.66 6 9.32 6 10 6 C10 6.66 10 7.32 10 8 C10.99 8.33 11.98 8.66 13 9 C13.6875 11.0625 13.6875 11.0625 14 13 C11.36 12.67 8.72 12.34 6 12 C6.33 10.35 6.66 8.7 7 7 C6.01 6.67 5.02 6.34 4 6 C4 5.34 4 4.68 4 4 C2.68 4 1.36 4 0 4 C0 2.68 0 1.36 0 0 Z " fill="#EC211F" transform="translate(662,518)"/>
<path d="M0 0 C0.66 0.33 1.32 0.66 2 1 C2.05399736 2.45792884 2.09279177 3.91642712 2.125 5.375 C2.14820313 6.18710937 2.17140625 6.99921875 2.1953125 7.8359375 C2 10 2 10 0 12 C-0.66 11.67 -1.32 11.34 -2 11 C-2.33 11.66 -2.66 12.32 -3 13 C-3.66 13 -4.32 13 -5 13 C-5.875 11 -5.875 11 -6 8 C-4.26346566 5.10933821 -2.19022601 2.55843792 0 0 Z " fill="#E11F1D" transform="translate(645,459)"/>
<path d="M0 0 C1.5 1.375 1.5 1.375 3 3 C3 3.66 3 4.32 3 5 C3.99 5 4.98 5 6 5 C6 6.32 6 7.64 6 9 C6.66 9 7.32 9 8 9 C8 8.34 8 7.68 8 7 C9.32 7 10.64 7 12 7 C12 7.66 12 8.32 12 9 C12.66 9 13.32 9 14 9 C14 9.66 14 10.32 14 11 C13.34 11 12.68 11 12 11 C12 11.66 12 12.32 12 13 C11.01 13.33 10.02 13.66 9 14 C8.67 13.34 8.34 12.68 8 12 C7.01 12.495 7.01 12.495 6 13 C4.98868775 11.59138651 3.99133233 10.17274547 3 8.75 C2.1646875 7.56664062 2.1646875 7.56664062 1.3125 6.359375 C0 4 0 4 0 0 Z " fill="#DC2B26" transform="translate(646,569)"/>
<path d="M0 0 C2.97 0 5.94 0 9 0 C6.05462835 3.32226755 3.56538876 4.8268491 -0.625 6.25 C-1.58664062 6.58515625 -2.54828125 6.9203125 -3.5390625 7.265625 C-6 8 -6 8 -8 8 C-8 7.34 -8 6.68 -8 6 C-8.66 6 -9.32 6 -10 6 C-9.67 5.01 -9.34 4.02 -9 3 C-6.03 3 -3.06 3 0 3 C0 2.01 0 1.02 0 0 Z " fill="#D72721" transform="translate(668,547)"/>
<path d="M0 0 C0.7734375 0.3403125 0.7734375 0.3403125 1.5625 0.6875 C0.9025 0.6875 0.2425 0.6875 -0.4375 0.6875 C-0.4375 1.3475 -0.4375 2.0075 -0.4375 2.6875 C-6.19865489 5.55474144 -11.02900432 7.12535126 -17.4375 7.6875 C-18.4275 8.1825 -18.4275 8.1825 -19.4375 8.6875 C-21.7775417 8.40508117 -24.11254723 8.07499213 -26.4375 7.6875 C-23.09668186 5.79355687 -19.87231853 5.02940703 -16.125 4.25 C-12.3468562 3.42406049 -8.87007977 2.60146189 -5.375 0.9375 C-2.4375 -0.3125 -2.4375 -0.3125 0 0 Z " fill="#DC3734" transform="translate(675.4375,553.3125)"/>
<path d="M0 0 C2.31 0.33 4.62 0.66 7 1 C7 1.66 7 2.32 7 3 C6.01 3.495 6.01 3.495 5 4 C5 4.99 5 5.98 5 7 C-3.25 6.67 -11.5 6.34 -20 6 C-20 5.67 -20 5.34 -20 5 C-10.1 4.505 -10.1 4.505 0 4 C0 2.68 0 1.36 0 0 Z " fill="#E85757" transform="translate(575,463)"/>
<path d="M0 0 C1.98 0 3.96 0 6 0 C6 0.66 6 1.32 6 2 C5.34 2 4.68 2 4 2 C4 2.99 4 3.98 4 5 C3.01 5.495 3.01 5.495 2 6 C0.86649466 8.01669827 0.86649466 8.01669827 0 10 C-1.32 10 -2.64 10 -4 10 C-4 8.68 -4 7.36 -4 6 C-3.01 6 -2.02 6 -1 6 C-1 5.34 -1 4.68 -1 4 C-1.99 4 -2.98 4 -4 4 C-4 3.34 -4 2.68 -4 2 C-2.68 2 -1.36 2 0 2 C0 1.34 0 0.68 0 0 Z " fill="#E92322" transform="translate(650,504)"/>
<path d="M0 0 C0 0.66 0 1.32 0 2 C-0.99 2.495 -0.99 2.495 -2 3 C-1.34 3.33 -0.68 3.66 0 4 C0 4.66 0 5.32 0 6 C0.66 6 1.32 6 2 6 C2 6.66 2 7.32 2 8 C0.68 8 -0.64 8 -2 8 C-2 7.34 -2 6.68 -2 6 C-2.66 6 -3.32 6 -4 6 C-4 7.32 -4 8.64 -4 10 C-5.32 10 -6.64 10 -8 10 C-8 9.34 -8 8.68 -8 8 C-8.66 7.67 -9.32 7.34 -10 7 C-9.01 7 -8.02 7 -7 7 C-6.9175 6.21625 -6.835 5.4325 -6.75 4.625 C-6 2 -6 2 -4.0625 0.6875 C-2 0 -2 0 0 0 Z " fill="#E6241F" transform="translate(658,514)"/>
<path d="M0 0 C0.99 0 1.98 0 3 0 C3 5.61 3 11.22 3 17 C2.67 17 2.34 17 2 17 C2 15.35 2 13.7 2 12 C1.01 12.33 0.02 12.66 -1 13 C-1.02696365 11.20841511 -1.04637917 9.41671527 -1.0625 7.625 C-1.07410156 6.62726563 -1.08570313 5.62953125 -1.09765625 4.6015625 C-1 2 -1 2 0 0 Z " fill="#D82725" transform="translate(738,420)"/>
<path d="M0 0 C0.33 0 0.66 0 1 0 C1.23576736 7.62314474 0.83717315 14.58569409 -1 22 C-2.06700419 18.01890872 -2.52281995 14.09011471 -3 10 C-4.98 10.99 -4.98 10.99 -7 12 C-6.34 9.03 -5.68 6.06 -5 3 C-4.01 4.485 -4.01 4.485 -3 6 C-2.34 6 -1.68 6 -1 6 C-0.67 4.02 -0.34 2.04 0 0 Z " fill="#E75951" transform="translate(741,426)"/>
<path d="M0 0 C0.66 0 1.32 0 2 0 C2 1.65 2 3.3 2 5 C2.66 5 3.32 5 4 5 C4 4.34 4 3.68 4 3 C4.99 3 5.98 3 7 3 C7.6875 4.75 7.6875 4.75 8 7 C6.75 9.25 6.75 9.25 5 11 C4.01 11 3.02 11 2 11 C2 10.34 2 9.68 2 9 C1.34 9 0.68 9 0 9 C0 6.03 0 3.06 0 0 Z " fill="#E72820" transform="translate(626,479)"/>
<path d="M0 0 C1.32 0 2.64 0 4 0 C4 0.66 4 1.32 4 2 C4.721875 1.95875 5.44375 1.9175 6.1875 1.875 C9.20729369 2.00921305 11.26935729 2.75170619 14 4 C12.68 5.32 11.36 6.64 10 8 C8.02 7.34 6.04 6.68 4 6 C4 5.34 4 4.68 4 4 C3.34 4 2.68 4 2 4 C2 3.34 2 2.68 2 2 C1.34 2 0.68 2 0 2 C0 1.34 0 0.68 0 0 Z " fill="#E23124" transform="translate(606,496)"/>
<path d="M0 0 C2.96723366 0.31791789 3.9806331 0.98045444 6.1171875 3.13671875 C8.39051857 6.5938799 8.47863975 8.52651894 8.375 12.625 C8.36210938 13.75164062 8.34921875 14.87828125 8.3359375 16.0390625 C8 19 8 19 6 22 C5.34 22 4.68 22 4 22 C4.23976563 21.18015625 4.23976563 21.18015625 4.484375 20.34375 C5.06963543 17.68347534 5.20511158 15.22323064 5.25 12.5 C5.27578125 11.5615625 5.3015625 10.623125 5.328125 9.65625 C4.94769863 6.57660798 3.95393692 5.34472431 2 3 C2 2.34 2 1.68 2 1 C1.34 0.67 0.68 0.34 0 0 Z " fill="#DF1E1D" transform="translate(695,417)"/>
<path d="M0 0 C2.875 -0.1875 2.875 -0.1875 6 0 C6.66 0.99 7.32 1.98 8 3 C5.69 4.98 3.38 6.96 1 9 C-0.06546953 5.8035914 -0.07427838 3.34252724 0 0 Z " fill="#DA3937" transform="translate(582,558)"/>
<path d="M0 0 C4.29 0 8.58 0 13 0 C11.68 0.33 10.36 0.66 9 1 C9 1.66 9 2.32 9 3 C10.32 3.33 11.64 3.66 13 4 C8.71 4 4.42 4 0 4 C0 2.68 0 1.36 0 0 Z " fill="#AB2F2C" transform="translate(519,469)"/>
<path d="M0 0 C0.99 0.33 1.98 0.66 3 1 C2.31164062 1.87011719 2.31164062 1.87011719 1.609375 2.7578125 C-2.53964409 8.02544263 -2.53964409 8.02544263 -6.3125 13.5625 C-6.869375 14.366875 -7.42625 15.17125 -8 16 C-8.66 16 -9.32 16 -10 16 C-10 15.34 -10 14.68 -10 14 C-9.34 14 -8.68 14 -8 14 C-7.34 10.37 -6.68 6.74 -6 3 C-5.67 3.66 -5.34 4.32 -5 5 C-3.35 3.35 -1.7 1.7 0 0 Z " fill="#E14544" transform="translate(624,559)"/>
<path d="M0 0 C2.3125 0.875 2.3125 0.875 3.3125 2.875 C2.375 5 2.375 5 1.3125 6.875 C-0.9975 6.875 -3.3075 6.875 -5.6875 6.875 C-5.3575 6.215 -5.0275 5.555 -4.6875 4.875 C-4.0275 4.875 -3.3675 4.875 -2.6875 4.875 C-2.6875 4.215 -2.6875 3.555 -2.6875 2.875 C-4.0075 3.205 -5.3275 3.535 -6.6875 3.875 C-3.388111 -0.15758656 -3.388111 -0.15758656 0 0 Z " fill="#E7312E" transform="translate(660.6875,511.125)"/>
<path d="M0 0 C0.33 0.66 0.66 1.32 1 2 C1.66 2 2.32 2 3 2 C3.33 1.34 3.66 0.68 4 0 C4.33 1.32 4.66 2.64 5 4 C4.34 4 3.68 4 3 4 C3 4.66 3 5.32 3 6 C3.66 6 4.32 6 5 6 C5 7.32 5 8.64 5 10 C4.34 10 3.68 10 3 10 C3 9.34 3 8.68 3 8 C1.68 8 0.36 8 -1 8 C-1.33 5.69 -1.66 3.38 -2 1 C-1.34 0.67 -0.68 0.34 0 0 Z " fill="#E92927" transform="translate(619,510)"/>
<path d="M0 0 C-1.98 0.66 -3.96 1.32 -6 2 C-2.7 2.33 0.6 2.66 4 3 C4 3.33 4 3.66 4 4 C-1.94 4.33 -7.88 4.66 -14 5 C-14 4.01 -14 3.02 -14 2 C-12.42085985 1.46658816 -10.83645613 0.94874237 -9.25 0.4375 C-8.36828125 0.14746094 -7.4865625 -0.14257812 -6.578125 -0.44140625 C-3.92165684 -1.01697435 -2.52968894 -0.89248371 0 0 Z " fill="#E77772" transform="translate(576,434)"/>
<path d="M0 0 C1.32 0 2.64 0 4 0 C4 1.32 4 2.64 4 4 C4.66 4 5.32 4 6 4 C4.48601545 7.78496138 3.9855604 8.0072198 0 10 C0 6.7 0 3.4 0 0 Z " fill="#DA1A1A" transform="translate(574,562)"/>
<path d="M0 0 C1.65 0.33 3.3 0.66 5 1 C3.8905928 4.48670834 2.73662334 7.77484237 1 11 C0.01 11 -0.98 11 -2 11 C-1 3.57142857 -1 3.57142857 0 0 Z " fill="#A23233" transform="translate(553,597)"/>
<path d="M0 0 C3.3 0 6.6 0 10 0 C10 1.32 10 2.64 10 4 C8.54176788 4.0270043 7.08339325 4.04639787 5.625 4.0625 C4.81289063 4.07410156 4.00078125 4.08570313 3.1640625 4.09765625 C1 4 1 4 -1 3 C-0.67 2.01 -0.34 1.02 0 0 Z " fill="#D1362D" transform="translate(502,457)"/>
<path d="M0 0 C0.99 0 1.98 0 3 0 C3 1.32 3 2.64 3 4 C3.66 4 4.32 4 5 4 C5 3.34 5 2.68 5 2 C5.66 2 6.32 2 7 2 C7 3.32 7 4.64 7 6 C10.63 6.33 14.26 6.66 18 7 C18 7.33 18 7.66 18 8 C6.4287576 8.91485665 6.4287576 8.91485665 3.0234375 6.734375 C1.24476531 4.59164709 0 2.84564593 0 0 Z " fill="#D31D1B" transform="translate(657,584)"/>
<path d="M0 0 C0.66 0.33 1.32 0.66 2 1 C1.34 4.3 0.68 7.6 0 11 C-0.66 11 -1.32 11 -2 11 C-2.33 10.01 -2.66 9.02 -3 8 C-4.65 8.33 -6.3 8.66 -8 9 C-7.04270084 7.87411986 -6.08412105 6.7493285 -5.125 5.625 C-4.59132813 4.99851562 -4.05765625 4.37203125 -3.5078125 3.7265625 C-2.38567993 2.44163349 -1.20628025 1.20628025 0 0 Z " fill="#E24D4A" transform="translate(594,561)"/>
<path d="M0 0 C1.8871875 0.0309375 1.8871875 0.0309375 3.8125 0.0625 C3.8125 1.3825 3.8125 2.7025 3.8125 4.0625 C0.1825 4.0625 -3.4475 4.0625 -7.1875 4.0625 C-7.1875 3.0725 -7.1875 2.0825 -7.1875 1.0625 C-4.43671116 0.14557039 -2.82801087 -0.04636083 0 0 Z " fill="#DF413D" transform="translate(584.1875,494.9375)"/>
<path d="M0 0 C0.93065133 2.60582371 1.14917407 3.64198224 0.0625 6.25 C-0.4634375 7.11625 -0.4634375 7.11625 -1 8 C-1.66 8 -2.32 8 -3 8 C-2.67 8.99 -2.34 9.98 -2 11 C-3.4375 13.1875 -3.4375 13.1875 -5 15 C-5.66 14.67 -6.32 14.34 -7 14 C-5.43181728 8.547001 -3.96189783 4.23513217 0 0 Z " fill="#DD1516" transform="translate(617,565)"/>
<path d="M0 0 C2.0625 0.4375 2.0625 0.4375 4 1 C2.2126038 2.33905267 0.41995047 3.67109066 -1.375 5 C-2.37273438 5.7425 -3.37046875 6.485 -4.3984375 7.25 C-7 9 -7 9 -9 9 C-8.375 6.125 -8.375 6.125 -7 3 C-3.9375 1.6875 -3.9375 1.6875 -1 1 C-0.67 0.67 -0.34 0.34 0 0 Z " fill="#E24A49" transform="translate(641,517)"/>
<path d="M0 0 C3.3 0 6.6 0 10 0 C10 0.66 10 1.32 10 2 C8.68 2.33 7.36 2.66 6 3 C6 3.66 6 4.32 6 5 C4.02 5 2.04 5 0 5 C0.66 3.68 1.32 2.36 2 1 C1.34 0.67 0.68 0.34 0 0 Z " fill="#E51817" transform="translate(644,537)"/>
<path d="M0 0 C4.29 0 8.58 0 13 0 C8.91748364 3.06188727 8.43502071 3.37243503 3.75 3.1875 C2.85796875 3.16042969 1.9659375 3.13335937 1.046875 3.10546875 C0.37140625 3.07066406 -0.3040625 3.03585937 -1 3 C-0.67 2.01 -0.34 1.02 0 0 Z " fill="#CF5155" transform="translate(485,445)"/>
<path d="M0 0 C1.98 0.495 1.98 0.495 4 1 C3.67 1.66 3.34 2.32 3 3 C3.763125 3.12375 4.52625 3.2475 5.3125 3.375 C8 4 8 4 11 6 C7.52128379 7.15957207 6.65780355 6.77456651 3.3125 5.5625 C2.50425781 5.27503906 1.69601562 4.98757813 0.86328125 4.69140625 C0.24839844 4.46324219 -0.36648438 4.23507812 -1 4 C-0.67 2.68 -0.34 1.36 0 0 Z " fill="#E44B44" transform="translate(638,526)"/>
<path d="M0 0 C1.62418745 -0.08090971 3.24951745 -0.13914995 4.875 -0.1875 C5.77992188 -0.22230469 6.68484375 -0.25710938 7.6171875 -0.29296875 C8.79667969 -0.14794922 8.79667969 -0.14794922 10 0 C10.66 0.99 11.32 1.98 12 3 C8.04 3 4.08 3 0 3 C0 2.01 0 1.02 0 0 Z " fill="#761E1D" transform="translate(537,482)"/>
<path d="M0 0 C2.625 -0.1875 2.625 -0.1875 5 0 C4.75 2.375 4.75 2.375 4 5 C1.9375 6.3125 1.9375 6.3125 0 7 C-0.66 5.68 -1.32 4.36 -2 3 C-1.34 2.01 -0.68 1.02 0 0 Z " fill="#E53B31" transform="translate(635,476)"/>
<path d="M0 0 C1.32 0 2.64 0 4 0 C5 3 5 3 4.22265625 4.82421875 C3.1484375 6.54947917 2.07421875 8.27473958 1 10 C0.67 10 0.34 10 0 10 C0 8.35 0 6.7 0 5 C-0.66 5 -1.32 5 -2 5 C-2 4.34 -2 3.68 -2 3 C-1.34 3 -0.68 3 0 3 C0 2.01 0 1.02 0 0 Z " fill="#E04943" transform="translate(642,469)"/>
<path d="M0 0 C3.875 4.75 3.875 4.75 5 7 C2.69 7.33 0.38 7.66 -2 8 C-2 6.68 -2 5.36 -2 4 C-2.66 4 -3.32 4 -4 4 C-4 3.34 -4 2.68 -4 2 C-2.68 2 -1.36 2 0 2 C0 1.34 0 0.68 0 0 Z " fill="#E94740" transform="translate(612,456)"/>
<path d="M0 0 C0.99 0.33 1.98 0.66 3 1 C1.85821872 2.66944521 0.71147095 4.3354948 -0.4375 6 C-1.07558594 6.928125 -1.71367188 7.85625 -2.37109375 8.8125 C-2.90863281 9.534375 -3.44617188 10.25625 -4 11 C-4.33 11 -4.66 11 -5 11 C-5 8.03 -5 5.06 -5 2 C-4.01 2.33 -3.02 2.66 -2 3 C-1.34 2.01 -0.68 1.02 0 0 Z " fill="#D72F32" transform="translate(609,580)"/>
<path d="M0 0 C3.3 0.33 6.6 0.66 10 1 C10 1.66 10 2.32 10 3 C5.71 3.66 1.42 4.32 -3 5 C-2.67 4.01 -2.34 3.02 -2 2 C-1.34 2 -0.68 2 0 2 C0 1.34 0 0.68 0 0 Z " fill="#E04443" transform="translate(644,554)"/>
<path d="M0 0 C0.66 0.33 1.32 0.66 2 1 C1.25 2.9375 1.25 2.9375 0 5 C-2.125 5.75 -2.125 5.75 -4 6 C-3.67 7.65 -3.34 9.3 -3 11 C-3.66 11 -4.32 11 -5 11 C-5.66 10.34 -6.32 9.68 -7 9 C-7.66 8.67 -8.32 8.34 -9 8 C-6.03 5.36 -3.06 2.72 0 0 Z " fill="#E64F48" transform="translate(625,501)"/>
<path d="M0 0 C4.29 0 8.58 0 13 0 C13 0.66 13 1.32 13 2 C6.565 2.495 6.565 2.495 0 3 C0 2.01 0 1.02 0 0 Z " fill="#A2110F" transform="translate(563,495)"/>
<path d="M0 0 C3.63 0 7.26 0 11 0 C11 0.66 11 1.32 11 2 C12.32 2.33 13.64 2.66 15 3 C8.94474232 4.38766322 5.67989374 3.49118146 0 1 C0 0.67 0 0.34 0 0 Z " fill="#D9332B" transform="translate(609,438)"/>
<path d="M0 0 C1.6875 1.5 1.6875 1.5 3 3 C2.67 3.99 2.34 4.98 2 6 C-1.38023517 6 -3.83468937 5.12544378 -7 4 C-3.375 0 -3.375 0 0 0 Z " fill="#D52A2B" transform="translate(572,572)"/>
<path d="M0 0 C2 0 4 0 6 0 C6 1.98 6 3.96 6 6 C5.34 6 4.68 6 4 6 C4 5.34 4 4.68 4 4 C1.69 4.33 -0.62 4.66 -3 5 C-1.6875 2.5 -1.6875 2.5 0 0 Z " fill="#D9322B" transform="translate(580,548)"/>
<path d="M0 0 C0.66 0 1.32 0 2 0 C2 0.66 2 1.32 2 2 C3.32 1.67 4.64 1.34 6 1 C6 1.99 6 2.98 6 4 C0.58461538 6.21538462 0.58461538 6.21538462 -2.375 5.125 C-2.91125 4.75375 -3.4475 4.3825 -4 4 C-4 3.34 -4 2.68 -4 2 C-2.68 2 -1.36 2 0 2 C0 1.34 0 0.68 0 0 Z " fill="#E7463D" transform="translate(664,494)"/>
<path d="M0 0 C8.25 0 16.5 0 25 0 C25 0.99 25 1.98 25 3 C24.44280273 2.84152588 23.88560547 2.68305176 23.31152344 2.51977539 C20.84122989 1.96429853 18.54446396 1.791532 16.015625 1.68359375 C15.08105469 1.64169922 14.14648438 1.59980469 13.18359375 1.55664062 C12.21550781 1.51732422 11.24742187 1.47800781 10.25 1.4375 C9.26644531 1.39431641 8.28289063 1.35113281 7.26953125 1.30664062 C4.84648725 1.20077948 2.4233446 1.09869829 0 1 C0 0.67 0 0.34 0 0 Z " fill="#CB2524" transform="translate(549,460)"/>
<path d="M0 0 C1.66666667 0 3.33333333 0 5 0 C5 0.66 5 1.32 5 2 C5.66 2 6.32 2 7 2 C7 2.66 7 3.32 7 4 C6.34 4 5.68 4 5 4 C5.33 4.99 5.66 5.98 6 7 C5.01 7.99 4.02 8.98 3 10 C3 8.02 3 6.04 3 4 C2.34 4 1.68 4 1 4 C1 3.34 1 2.68 1 2 C0.34 1.67 -0.32 1.34 -1 1 C-0.67 0.67 -0.34 0.34 0 0 Z " fill="#E4231B" transform="translate(725,454)"/>
<path d="M0 0 C1.65 0.33 3.3 0.66 5 1 C4.360625 1.28875 3.72125 1.5775 3.0625 1.875 C0.84793921 2.82823451 0.84793921 2.82823451 0 5 C-1.32 5 -2.64 5 -4 5 C-4 5.66 -4 6.32 -4 7 C-4.66 7 -5.32 7 -6 7 C-6.66 5.68 -7.32 4.36 -8 3 C-5.29120665 1.64560332 -2.99066732 1.93498549 0 2 C0 1.34 0 0.68 0 0 Z " fill="#EA3536" transform="translate(632,431)"/>
<path d="M0 0 C0 0.66 0 1.32 0 2 C0.66 2.33 1.32 2.66 2 3 C0.02 4.32 -1.96 5.64 -4 7 C-4.66 5.35 -5.32 3.7 -6 2 C-3 0 -3 0 0 0 Z " fill="#E63338" transform="translate(622,530)"/>
<path d="M0 0 C0.763125 0.20625 1.52625 0.4125 2.3125 0.625 C1.6525 2.275 0.9925 3.925 0.3125 5.625 C-1.3375 5.625 -2.9875 5.625 -4.6875 5.625 C-5.0175 4.305 -5.3475 2.985 -5.6875 1.625 C-2.6875 -0.375 -2.6875 -0.375 0 0 Z " fill="#E52B22" transform="translate(645.6875,523.375)"/>
<path d="M0 0 C0.66 0.33 1.32 0.66 2 1 C2 1.66 2 2.32 2 3 C2.99 3 3.98 3 5 3 C5.33 4.65 5.66 6.3 6 8 C4.35 8.33 2.7 8.66 1 9 C1 7.35 1 5.7 1 4 C0.34 4 -0.32 4 -1 4 C-0.67 2.68 -0.34 1.36 0 0 Z " fill="#E02822" transform="translate(619,470)"/>
<path d="M0 0 C0.99 0.33 1.98 0.66 3 1 C3 3.97 3 6.94 3 10 C2.34 10 1.68 10 1 10 C0.67 9.34 0.34 8.68 0 8 C-0.99 8 -1.98 8 -3 8 C-2.690625 7.236875 -2.38125 6.47375 -2.0625 5.6875 C-1.32106407 3.81210323 -0.63771783 1.91315348 0 0 Z " fill="#E5342E" transform="translate(733,438)"/>
<path d="M0 0 C2.0625 0.4375 2.0625 0.4375 4 1 C4 2.98 4 4.96 4 7 C2.02 7 0.04 7 -2 7 C-1.67 6.01 -1.34 5.02 -1 4 C-0.34 4 0.32 4 1 4 C1 3.34 1 2.68 1 2 C0.34 1.67 -0.32 1.34 -1 1 C-0.67 0.67 -0.34 0.34 0 0 Z " fill="#E72B2D" transform="translate(628,533)"/>
<path d="M0 0 C1.32 0.66 2.64 1.32 4 2 C4 3.32 4 4.64 4 6 C3.34 6 2.68 6 2 6 C1.67 6.66 1.34 7.32 1 8 C0.34 8 -0.32 8 -1 8 C-1.625 5.6875 -1.625 5.6875 -2 3 C-1.34 2.01 -0.68 1.02 0 0 Z " fill="#E32A24" transform="translate(641,464)"/>
<path d="M0 0 C0.99 0.33 1.98 0.66 3 1 C3 1.66 3 2.32 3 3 C3.66 3 4.32 3 5 3 C5 3.66 5 4.32 5 5 C4.05125 4.979375 3.1025 4.95875 2.125 4.9375 C-0.90666283 4.77448174 -0.90666283 4.77448174 -3 6 C-2.625 3.5625 -2.625 3.5625 -2 1 C-1.34 0.67 -0.68 0.34 0 0 Z " fill="#E7251C" transform="translate(731,445)"/>
<path d="M0 0 C0.66 0.33 1.32 0.66 2 1 C1.67 2.98 1.34 4.96 1 7 C-1.046875 7.51171875 -3.09375 8.0234375 -5.140625 8.53515625 C-6.06101562 8.76525391 -6.06101562 8.76525391 -7 9 C-6.57847656 8.51789062 -6.15695312 8.03578125 -5.72265625 7.5390625 C-5.17480469 6.90742187 -4.62695312 6.27578125 -4.0625 5.625 C-3.51722656 4.99851562 -2.97195313 4.37203125 -2.41015625 3.7265625 C-0.93041376 2.04367666 -0.93041376 2.04367666 0 0 Z " fill="#D92D2C" transform="translate(599,525)"/>
<path d="M0 0 C0 2.33333333 0 4.66666667 0 7 C-1.98 7 -3.96 7 -6 7 C-4.52307692 2.32307692 -4.52307692 2.32307692 -1.875 0.6875 C-1.25625 0.460625 -0.6375 0.23375 0 0 Z " fill="#E11C1A" transform="translate(618,509)"/>
<path d="M0 0 C0.66 0 1.32 0 2 0 C2 1.98 2 3.96 2 6 C-0.64 6 -3.28 6 -6 6 C-6 4.68 -6 3.36 -6 2 C-5.34 2 -4.68 2 -4 2 C-4 2.66 -4 3.32 -4 4 C-2.68 4 -1.36 4 0 4 C0 2.68 0 1.36 0 0 Z " fill="#E72122" transform="translate(690,424)"/>
<path d="M0 0 C2.64 0.99 5.28 1.98 8 3 C7.67 3.99 7.34 4.98 7 6 C5.0625 6.8125 5.0625 6.8125 3 7 C0.64046906 4.64046906 0.50858587 3.22104383 0 0 Z " fill="#E44641" transform="translate(681,448)"/>
<path d="M0 0 C2.66735273 2.48952921 4.55746343 4.63408134 6 8 C4.35 8.33 2.7 8.66 1 9 C0.67 6.03 0.34 3.06 0 0 Z " fill="#D7413F" transform="translate(689,571)"/>
<path d="M0 0 C-0.66 1.65 -1.32 3.3 -2 5 C-1.34 5 -0.68 5 0 5 C0 5.66 0 6.32 0 7 C-1.98 7 -3.96 7 -6 7 C-6 4 -6 4 -4.125 1.8125 C-2 0 -2 0 0 0 Z " fill="#E6403F" transform="translate(620,541)"/>
<path d="M0 0 C1.32 0 2.64 0 4 0 C4.33 2.31 4.66 4.62 5 7 C3.02 7.99 3.02 7.99 1 9 C1.33 6.69 1.66 4.38 2 2 C1.34 2 0.68 2 0 2 C0 1.34 0 0.68 0 0 Z " fill="#D83032" transform="translate(594,546)"/>
<path d="M0 0 C-0.33 0.66 -0.66 1.32 -1 2 C-4.96 2 -8.92 2 -13 2 C-13 1.34 -13 0.68 -13 0 C-11.39679026 -0.19551338 -9.79237014 -0.38111983 -8.1875 -0.5625 C-7.29417969 -0.66691406 -6.40085937 -0.77132812 -5.48046875 -0.87890625 C-3 -1 -3 -1 0 0 Z " fill="#EB1917" transform="translate(669,540)"/>
<path d="M0 0 C1.98 0 3.96 0 6 0 C6.33 2.31 6.66 4.62 7 7 C5.35 6.67 3.7 6.34 2 6 C2.33 5.34 2.66 4.68 3 4 C2.01 2.68 1.02 1.36 0 0 Z " fill="#E34647" transform="translate(564,450)"/>
<path d="M0 0 C0 0.66 0 1.32 0 2 C0.66 2.33 1.32 2.66 2 3 C0.41705218 3.05437607 -1.16644256 3.09296271 -2.75 3.125 C-3.63171875 3.14820313 -4.5134375 3.17140625 -5.421875 3.1953125 C-8.1135858 2.99139502 -9.69904974 2.36551721 -12 1 C-7.915021 0.45533613 -4.1274515 0 0 0 Z " fill="#EB3128" transform="translate(594,432)"/>
<path d="M0 0 C0.66 0 1.32 0 2 0 C2 0.66 2 1.32 2 2 C2.99 2 3.98 2 5 2 C5 2.66 5 3.32 5 4 C1.04 4 -2.92 4 -7 4 C-4 2 -4 2 0 2 C0 1.34 0 0.68 0 0 Z " fill="#D61C16" transform="translate(694,588)"/>
<path d="M0 0 C5.75 -0.125 5.75 -0.125 8 1 C8 1.66 8 2.32 8 3 C5.69 3.33 3.38 3.66 1 4 C0.67 2.68 0.34 1.36 0 0 Z " fill="#DE2926" transform="translate(642,563)"/>
<path d="M0 0 C0.33 0 0.66 0 1 0 C1.2954439 5.02254631 0.98514628 7.89542386 -2 12 C-2.99 11.67 -3.98 11.34 -5 11 C-5 10.01 -5 9.02 -5 8 C-4.01 8 -3.02 8 -2 8 C-2 7.34 -2 6.68 -2 6 C-1.34 6 -0.68 6 0 6 C0 4.02 0 2.04 0 0 Z " fill="#E5302C" transform="translate(681,535)"/>
<path d="M0 0 C0.99 0.33 1.98 0.66 3 1 C3.33 3.31 3.66 5.62 4 8 C2 8 0 8 -2 8 C-1.625 6.0625 -1.625 6.0625 -1 4 C-0.34 3.67 0.32 3.34 1 3 C0.67 2.01 0.34 1.02 0 0 Z " fill="#E21615" transform="translate(674,526)"/>
<path d="M0 0 C0.66 0 1.32 0 2 0 C2 0.66 2 1.32 2 2 C2.66 2 3.32 2 4 2 C4 2.66 4 3.32 4 4 C4.66 4 5.32 4 6 4 C6 4.66 6 5.32 6 6 C4.68 6 3.36 6 2 6 C2 5.34 2 4.68 2 4 C0.68 4 -0.64 4 -2 4 C-1.34 2.68 -0.68 1.36 0 0 Z " fill="#EC2322" transform="translate(604,496)"/>
<path d="M0 0 C4.19469571 0.59924224 8.00999834 1.57499941 12 3 C12 3.33 12 3.66 12 4 C9.69 4.33 7.38 4.66 5 5 C4.67 4.34 4.34 3.68 4 3 C1.97536745 2.34786708 1.97536745 2.34786708 0 2 C0 1.34 0 0.68 0 0 Z " fill="#E43434" transform="translate(652,437)"/>
<path d="M0 0 C0 1.32 0 2.64 0 4 C-1.65 4 -3.3 4 -5 4 C-5 3.34 -5 2.68 -5 2 C-5.99 1.67 -6.98 1.34 -8 1 C-2.25 -1.125 -2.25 -1.125 0 0 Z " fill="#E32F28" transform="translate(677,556)"/>
<path d="M0 0 C1.32 0 2.64 0 4 0 C4 0.66 4 1.32 4 2 C4.66 2.66 5.32 3.32 6 4 C3 6 3 6 0 6 C0 4.02 0 2.04 0 0 Z " fill="#E1191C" transform="translate(622,526)"/>
<path d="M0 0 C1.32 0.33 2.64 0.66 4 1 C2.25 5.875 2.25 5.875 0 7 C-0.66 6.67 -1.32 6.34 -2 6 C-1.49396008 3.83125748 -1.00016187 2.00032373 0 0 Z " fill="#E43336" transform="translate(608,504)"/>
<path d="M0 0 C1.98 0.66 3.96 1.32 6 2 C4.25 4.0625 4.25 4.0625 2 6 C-0.25 5.75 -0.25 5.75 -2 5 C-1.34 3.35 -0.68 1.7 0 0 Z " fill="#E25149" transform="translate(614,498)"/>
<path d="M0 0 C0.99 0 1.98 0 3 0 C3 0.66 3 1.32 3 2 C6.3 2 9.6 2 13 2 C13 2.33 13 2.66 13 3 C8.38 3.33 3.76 3.66 -1 4 C-0.67 2.68 -0.34 1.36 0 0 Z " fill="#BB221E" transform="translate(553,482)"/>
<path d="M0 0 C1.0169313 2.65498232 1.13022151 3.69155375 0.00390625 6.359375 C-0.47175781 7.14828125 -0.94742188 7.9371875 -1.4375 8.75 C-1.91058594 9.54921875 -2.38367188 10.3484375 -2.87109375 11.171875 C-3.24363281 11.77515625 -3.61617187 12.3784375 -4 13 C-4.66 13 -5.32 13 -6 13 C-6 12.34 -6 11.68 -6 11 C-5.34 11 -4.68 11 -4 11 C-3.67 9.02 -3.34 7.04 -3 5 C-2.34 5 -1.68 5 -1 5 C-0.67 3.35 -0.34 1.7 0 0 Z " fill="#E34B49" transform="translate(738,448)"/>
<path d="M0 0 C1.32 0 2.64 0 4 0 C3.67 1.32 3.34 2.64 3 4 C0.21176345 5.0326802 -0.8677274 5.04509293 -3.75 4.0625 C-4.4925 3.711875 -5.235 3.36125 -6 3 C-6 2.67 -6 2.34 -6 2 C-4.02 2 -2.04 2 0 2 C0 1.34 0 0.68 0 0 Z " fill="#EA413B" transform="translate(634,442)"/>
<path d="M0 0 C0.33 0 0.66 0 1 0 C1 3.33333333 1 6.66666667 1 10 C-0.65 9.67 -2.3 9.34 -4 9 C-2.68 6.03 -1.36 3.06 0 0 Z " fill="#CA413D" transform="translate(563,574)"/>
<path d="M0 0 C0.99 0 1.98 0 3 0 C3 0.66 3 1.32 3 2 C3.66 2.33 4.32 2.66 5 3 C3.625 4.5 3.625 4.5 2 6 C1.34 6 0.68 6 0 6 C0 5.34 0 4.68 0 4 C-0.66 3.67 -1.32 3.34 -2 3 C-1.34 2.01 -0.68 1.02 0 0 Z " fill="#D62723" transform="translate(564,578)"/>
<path d="M0 0 C1.5 1.375 1.5 1.375 3 3 C3 3.66 3 4.32 3 5 C3.99 5 4.98 5 6 5 C5.67 6.65 5.34 8.3 5 10 C2.9754262 8.06745228 1.57894208 6.36841312 0 4 C0 2.68 0 1.36 0 0 Z " fill="#DC4140" transform="translate(646,569)"/>
<path d="M0 0 C0.66 0.33 1.32 0.66 2 1 C0.12050295 4.57104439 -1.17053157 6.54744301 -5 8 C-4.34 6.02 -3.68 4.04 -3 2 C-2.01 2 -1.02 2 0 2 C0 1.34 0 0.68 0 0 Z " fill="#D61317" transform="translate(594,552)"/>
<path d="M0 0 C4.29 0 8.58 0 13 0 C13 0.66 13 1.32 13 2 C10.36 2.33 7.72 2.66 5 3 C5 2.34 5 1.68 5 1 C3.35 1 1.7 1 0 1 C0 0.67 0 0.34 0 0 Z " fill="#DA1813" transform="translate(619,431)"/>
<path d="M0 0 C5.95703125 -0.29296875 5.95703125 -0.29296875 8 0 C8.99 0.99 9.98 1.98 11 3 C7.37 2.67 3.74 2.34 0 2 C0 1.34 0 0.68 0 0 Z " fill="#E7595A" transform="translate(654,537)"/>
<path d="M0 0 C0.33 0 0.66 0 1 0 C1 2.64 1 5.28 1 8 C0.01 8 -0.98 8 -2 8 C-2.33 6.35 -2.66 4.7 -3 3 C-2.34 3 -1.68 3 -1 3 C-0.67 2.01 -0.34 1.02 0 0 Z " fill="#E52016" transform="translate(599,490)"/>
<path d="M0 0 C4.62 0 9.24 0 14 0 C14 0.33 14 0.66 14 1 C8.06 1.495 8.06 1.495 2 2 C2 2.66 2 3.32 2 4 C1.01 4 0.02 4 -1 4 C-0.67 2.68 -0.34 1.36 0 0 Z " fill="#B94544" transform="translate(561,494)"/>
<path d="M0 0 C1.32 0 2.64 0 4 0 C4 1.65 4 3.3 4 5 C1.125 5.625 1.125 5.625 -2 6 C-2.66 5.34 -3.32 4.68 -4 4 C-2.35 4 -0.7 4 1 4 C0.67 2.68 0.34 1.36 0 0 Z " fill="#E45F5C" transform="translate(582,476)"/>
<path d="M0 0 C0.66 0 1.32 0 2 0 C2 0.66 2 1.32 2 2 C2.99 2 3.98 2 5 2 C5.33 3.32 5.66 4.64 6 6 C4.68 6 3.36 6 2 6 C2 5.34 2 4.68 2 4 C1.34 4 0.68 4 0 4 C0 2.68 0 1.36 0 0 Z " fill="#E1301B" transform="translate(672,450)"/>
<path d="M0 0 C2.31 0 4.62 0 7 0 C6.01 0.66 5.02 1.32 4 2 C4.33 2.66 4.66 3.32 5 4 C3.68 4.33 2.36 4.66 1 5 C1 4.34 1 3.68 1 3 C0.34 3 -0.32 3 -1 3 C-0.67 2.01 -0.34 1.02 0 0 Z " fill="#E54840" transform="translate(659,550)"/>
<path d="M0 0 C-0.66 0 -1.32 0 -2 0 C-2 0.66 -2 1.32 -2 2 C-6.455 2.495 -6.455 2.495 -11 3 C-7.68381684 -0.31618316 -4.50821267 -1.6697084 0 0 Z " fill="#E2433D" transform="translate(677,554)"/>
<path d="M0 0 C1.32 0 2.64 0 4 0 C4.33 0.99 4.66 1.98 5 3 C3.68 3.99 2.36 4.98 1 6 C0.67 4.02 0.34 2.04 0 0 Z " fill="#DD1F22" transform="translate(598,546)"/>
<path d="M0 0 C0.33 0 0.66 0 1 0 C1 2.64 1 5.28 1 8 C0.34 8 -0.32 8 -1 8 C-1 7.34 -1 6.68 -1 6 C-1.99 5.67 -2.98 5.34 -4 5 C-2.69254251 3.31295807 -1.35827971 1.64639965 0 0 Z " fill="#D52C2B" transform="translate(591,534)"/>
<path d="M0 0 C1.485 0.99 1.485 0.99 3 2 C5.73872955 2.45772063 5.73872955 2.45772063 8.6875 2.625 C9.68136719 2.69976563 10.67523437 2.77453125 11.69921875 2.8515625 C12.45847656 2.90054688 13.21773437 2.94953125 14 3 C14 3.33 14 3.66 14 4 C9.71 4 5.42 4 1 4 C0.67 2.68 0.34 1.36 0 0 Z " fill="#C20C0A" transform="translate(659,589)"/>
<path d="M0 0 C1.5 1.3125 1.5 1.3125 3 3 C3 3.99 3 4.98 3 6 C0.36 6 -2.28 6 -5 6 C-4.360625 5.7525 -3.72125 5.505 -3.0625 5.25 C-0.81258459 4.18437567 -0.81258459 4.18437567 -0.25 1.875 C-0.1675 1.25625 -0.085 0.6375 0 0 Z " fill="#CC0C0B" transform="translate(700,587)"/>
<path d="M0 0 C0.99 0.495 0.99 0.495 2 1 C2 1.99 2 2.98 2 4 C2.66 4 3.32 4 4 4 C4 4.66 4 5.32 4 6 C3.34 6 2.68 6 2 6 C2 6.66 2 7.32 2 8 C1.34 8 0.68 8 0 8 C0 5.36 0 2.72 0 0 Z " fill="#DF1715" transform="translate(592,534)"/>
<path d="M0 0 C0.66 0.33 1.32 0.66 2 1 C1.67 1.99 1.34 2.98 1 4 C0.01 4 -0.98 4 -2 4 C-2.33 4.99 -2.66 5.98 -3 7 C-3.99 6.34 -4.98 5.68 -6 5 C-4.02 3.35 -2.04 1.7 0 0 Z " fill="#E85149" transform="translate(650,517)"/>
<path d="M0 0 C-0.33 1.65 -0.66 3.3 -1 5 C-1.66 5 -2.32 5 -3 5 C-3 4.34 -3 3.68 -3 3 C-4.32 3.33 -5.64 3.66 -7 4 C-3.375 0 -3.375 0 0 0 Z " fill="#E23B3F" transform="translate(661,511)"/>
<path d="M0 0 C-3.06117568 2.62386487 -3.73173127 3 -8 3 C-8 2.34 -8 1.68 -8 1 C-4.93251126 -0.86240388 -3.40254489 -1.2151946 0 0 Z " fill="#E24040" transform="translate(677,548)"/>
<path d="M0 0 C0.99 0.33 1.98 0.66 3 1 C2.01 1.495 2.01 1.495 1 2 C1 2.66 1 3.32 1 4 C0.34 4 -0.32 4 -1 4 C-1.33 4.99 -1.66 5.98 -2 7 C-2.66 6.01 -3.32 5.02 -4 4 C-2.68 3.34 -1.36 2.68 0 2 C0 1.34 0 0.68 0 0 Z " fill="#E54548" transform="translate(611,513)"/>
<path d="M0 0 C0.99 0.33 1.98 0.66 3 1 C2.67 2.65 2.34 4.3 2 6 C1.01 5.67 0.02 5.34 -1 5 C-1.33 4.01 -1.66 3.02 -2 2 C-1.34 1.34 -0.68 0.68 0 0 Z " fill="#E34140" transform="translate(683,476)"/>
<path d="M0 0 C1.32 0 2.64 0 4 0 C4.33 1.32 4.66 2.64 5 4 C2.03 3.505 2.03 3.505 -1 3 C-0.67 2.01 -0.34 1.02 0 0 Z " fill="#DE9794" transform="translate(502,457)"/>
<path d="M0 0 C0 1.65 0 3.3 0 5 C-1.32 5 -2.64 5 -4 5 C-4 3.68 -4 2.36 -4 1 C-2 0 -2 0 0 0 Z " fill="#E71C1F" transform="translate(608,449)"/>
<path d="M0 0 C0.99 0.33 1.98 0.66 3 1 C2.34 2.32 1.68 3.64 1 5 C-0.32 4.67 -1.64 4.34 -3 4 C-3 3.34 -3 2.68 -3 2 C-2.01 1.34 -1.02 0.68 0 0 Z " fill="#E5463D" transform="translate(697,438)"/>
<path d="M0 0 C-2.55068845 2.35448165 -3.71017358 2.98327924 -7.25 3.1875 C-8.1575 3.125625 -9.065 3.06375 -10 3 C-8.0130571 -0.97388579 -3.91761109 -0.08705802 0 0 Z " fill="#DC1C1A" transform="translate(582,433)"/>
<path d="M0 0 C-3.8503105 2.56687367 -5.58569763 1.83288724 -10 1 C-6.1496895 -1.56687367 -4.41430237 -0.83288724 0 0 Z " fill="#DB4C4D" transform="translate(693,414)"/>
<path d="M0 0 C0.99 0 1.98 0 3 0 C3.33 1.32 3.66 2.64 4 4 C3.01 4 2.02 4 1 4 C0.67 4.66 0.34 5.32 0 6 C-0.38218767 4.34385343 -0.71395102 2.67542976 -1 1 C-0.67 0.67 -0.34 0.34 0 0 Z " fill="#B7110E" transform="translate(555,594)"/>
<path d="M0 0 C0.33 0.99 0.66 1.98 1 3 C0 4 0 4 -2.50390625 4.09765625 C-4.01791016 4.08025391 -4.01791016 4.08025391 -5.5625 4.0625 C-6.57441406 4.05347656 -7.58632813 4.04445313 -8.62890625 4.03515625 C-9.41136719 4.02355469 -10.19382812 4.01195312 -11 4 C-11 3.67 -11 3.34 -11 3 C-10.37351562 2.95101562 -9.74703125 2.90203125 -9.1015625 2.8515625 C-8.28429687 2.77679687 -7.46703125 2.70203125 -6.625 2.625 C-5.81289063 2.55539062 -5.00078125 2.48578125 -4.1640625 2.4140625 C-1.79665809 2.17107412 -1.79665809 2.17107412 0 0 Z " fill="#C30C0C" transform="translate(603,589)"/>
<path d="M0 0 C0.99 0.33 1.98 0.66 3 1 C2.195625 1.61875 1.39125 2.2375 0.5625 2.875 C-2.03874519 4.74164041 -2.03874519 4.74164041 -3 7 C-3.66 6.67 -4.32 6.34 -5 6 C-3.35 4.02 -1.7 2.04 0 0 Z " fill="#D30E11" transform="translate(600,556)"/>
<path d="M0 0 C0 0.66 0 1.32 0 2 C-5.41538462 3.23076923 -5.41538462 3.23076923 -8.375 2.0625 C-8.91125 1.711875 -9.4475 1.36125 -10 1 C-6.56484998 0.37542727 -3.50935186 0 0 0 Z " fill="#D52826" transform="translate(660,553)"/>
<path d="M0 0 C0.33 0.99 0.66 1.98 1 3 C-1.64 3.33 -4.28 3.66 -7 4 C-7 3.34 -7 2.68 -7 2 C-2.25 0 -2.25 0 0 0 Z " fill="#E31B19" transform="translate(676,544)"/>
<path d="M0 0 C2.97 0 5.94 0 9 0 C9 0.33 9 0.66 9 1 C7.35 1 5.7 1 4 1 C4 1.66 4 2.32 4 3 C2.68 3 1.36 3 0 3 C0 2.01 0 1.02 0 0 Z " fill="#D61C23" transform="translate(652,539)"/>
<path d="M0 0 C0.66 0 1.32 0 2 0 C1.67 1.32 1.34 2.64 1 4 C-0.65 4.33 -2.3 4.66 -4 5 C-2.71937515 3.2925002 -1.38232443 1.62626404 0 0 Z " fill="#E43F3F" transform="translate(633,494)"/>
<path d="M0 0 C1.32 0 2.64 0 4 0 C4.33 1.32 4.66 2.64 5 4 C4.01 4.495 4.01 4.495 3 5 C3 4.34 3 3.68 3 3 C2.01 3.33 1.02 3.66 0 4 C0 2.68 0 1.36 0 0 Z " fill="#EB4035" transform="translate(722,464)"/>
<path d="M0 0 C2.4375 0.8125 2.4375 0.8125 5 2 C5.33 2.99 5.66 3.98 6 5 C5.34 5.66 4.68 6.32 4 7 C0 2.25 0 2.25 0 0 Z " fill="#DB111A" transform="translate(645,452)"/>
<path d="M0 0 C4.31392226 0.4793247 6.16569547 1.7457985 9 5 C5.51694958 4.35499066 2.93797836 2.95865224 0 1 C0 0.67 0 0.34 0 0 Z " fill="#D61C16" transform="translate(635,446)"/>
<path d="M0 0 C3.14737182 0.69941596 6.02588876 1.76078698 9 3 C9 3.33 9 3.66 9 4 C2.25 3.125 2.25 3.125 0 2 C0 1.34 0 0.68 0 0 Z " fill="#E53536" transform="translate(664,441)"/>
<path d="M0 0 C2.79828356 0.38597015 3.8205884 0.80136573 5.75 2.9375 C7 5 7 5 7 7 C6.34 7 5.68 7 5 7 C2 3.53846154 2 3.53846154 2 1 C1.34 0.67 0.68 0.34 0 0 Z " fill="#D11113" transform="translate(695,417)"/>
</svg>
